<svg xmlns="http://www.w3.org/2000/svg" id="_Ñëîé_1" data-name="Ñëîé 1" viewBox="0 0 2711.63 1892.81">
    <defs>
        <style>
            .cls-1 {
            fill: #04041c;
            }

            .cls-2 {
            fill: #ffa69f;
            }

            .cls-3 {
            fill: #e8e8ea;
            }

            .cls-4 {
            fill: #476c99;
            }

            .cls-5 {
            fill: #ffdbb6;
            }

            .cls-6 {
            fill: #5e9edd;
            }

            .cls-7 {
            fill: #f75b57;
            }

            .cls-8, .cls-9 {
            fill: #fff;
            }

            .cls-10 {
            fill: #dae5f2;
            }

            .cls-11 {
            fill: #d16e54;
            }

            .cls-12 {
            fill: #a9d9ed;
            }

            .cls-13 {
            fill: #0f2251;
            }

            .cls-14 {
            fill: #95b0d8;
            }

            .cls-15 {
            fill: #3e31ba;
            opacity: .04;
            }

            .cls-16 {
            fill: #192654;
            }

            .cls-17 {
            fill: #2582c1;
            }

            .cls-18 {
            fill: #1d3c68;
            }

            .cls-19 {
            fill: #e6f0ff;
            }

            .cls-20 {
            fill: #04205e;
            }

            .cls-21 {
            fill: #f0fdff;
            }

            .cls-22 {
            fill: #283aa3;
            }

            .cls-23 {
            fill: #0e1647;
            }

            .cls-24 {
            fill: #050d33;
            }

            .cls-25 {
            fill: #ff766c;
            }

            .cls-26 {
            fill: #ffebd9;
            }

            .cls-27 {
            fill: #70b2ed;
            }

            .cls-28 {
            fill: #1e2f47;
            }

            .cls-29 {
            fill: #e8eff9;
            }

            .cls-30 {
            fill: #fff3e1;
            }

            .cls-31 {
            fill: #f75f6a;
            }

            .cls-32 {
            fill: #3845b8;
            }

            .cls-9 {
            opacity: .74;
            }

            .cls-33 {
            fill: #c36252;
            }

            .cls-34 {
            fill: #97bfff;
            }

            .cls-35 {
            fill: #eeedf2;
            }

            .cls-36 {
            fill: #eb8e6c;
            }

            .cls-37 {
            fill: #98c2e5;
            }

            .cls-38 {
            fill: #e4eff9;
            }

            .cls-39 {
            fill: #0b2c7f;
            }

            .cls-40 {
            fill: #f3f7ff;
            }

            .cls-41 {
            fill: #17253f;
            }

            .cls-42 {
            fill: #0d0d47;
            }

            .cls-43 {
            opacity: .48;
            }

            .cls-44 {
            fill: #121251;
            }

            .cls-45 {
            fill: #1c1c70;
            }

            .cls-46 {
            fill: #2e41af;
            }

            .cls-47 {
            fill: #f7f7f7;
            }

            .cls-48 {
            fill: #191960;
            }

            .cls-49 {
            fill: #db7861;
            }
        </style>
    </defs>
    <g>
        <path class="cls-27" d="M866.02,997.32c-25.09-20.67-84.29-11.1-106.35,70.22-27.01,99.53-12.76,224-16.03,224.02-2.08.01-9.86-106.28-31.2-216.17-41.71-214.83-103.77-281.43-125.42-302.27-13.66-13.15-62.27-59.94-94.14-43.96-27.34,13.7-37.25,68.02-28.67,127.49,31.18,216.17,136.44,443.71,107.64,447.8,0,0-107.99-281.73-214.23-389.89-48.89-49.78-150.48-104.42-193.66-65.34-23.62,21.38-23.42,65.8-23.34,83.83.24,52.29,21.06,95.13,63.64,164.93,69.09,113.24,166.06,221.73,160.93,227.95-5.19,6.3-98.1-110.82-176.98-118.05-36.67-3.36-87.15,9.49-102.99,49.87-19.04,48.54,20.49,115.07,63.69,186,40.44,66.41,100.5,162.84,213.92,242.4,79.3,55.62,176.03,123.47,280.56,104.3,209.89-38.5,261.34-393,270.35-455.08,8.32-57.3,38.73-266.81-47.73-338.05Z"/>
        <path class="cls-6" d="M866.02,997.32c-25.09-20.67-84.29-11.1-106.35,70.22-27.01,99.53-12.76,224-16.03,224.02-2.08.01-9.86-106.28-31.2-216.17-41.71-214.83-103.77-281.43-125.42-302.27-13.66-13.15-62.27-59.94-94.14-43.96-12.28,6.16-21.03,20.52-26.18,39.86,13.78-1.3,28.45-.25,43.06,4.91,33.23,11.73,51.8,39.6,63.59,60.17,115.91,202.28,98.4,463.55,98.4,463.55-9.23,137.79-39.75,257.12-32.93,258.63,7.6,1.68,35.29-148.71,67.87-147.58,24.27.84,41.28,85.44,46.21,123.49,5.6,43.15,7.99,121.47-35.64,228.68,148.63-95.91,188.64-371.47,196.48-425.5,8.32-57.3,38.73-266.81-47.73-338.05Z"/>
        <path class="cls-6" d="M218.44,1386.49c-17.31-5.13-57.12-13.14-64.19.41-8.55,16.4,29.38,67.25,75,69.64,22.2,1.16,49.72-8.97,51.95-23.29,2.83-18.2-35.87-38.79-62.76-46.76Z"/>
        <path class="cls-6" d="M377.4,1380.06c-7.35.78-11.97,24.83-11.08,44.02,1.58,33.83,20.98,66.77,29.79,64.74,8.39-1.93,8.21-35.83,3.82-59.52-3.96-21.38-14.27-50.11-22.53-49.24Z"/>
        <path class="cls-6" d="M392.93,1571.54c-23.72-9.12-66.13-21.42-70.69-12.39-4.74,9.4,31.98,41.14,71.97,58.8,35.69,15.76,81.65,23.68,85.76,14.02,4.55-10.68-41.95-43.09-87.04-60.43Z"/>
        <path class="cls-6" d="M316.98,923.44c-7.04.77-10.25,29.5-9.56,49.44,1.53,44.59,23.94,86.5,32.38,84.48,7.69-1.84,4.31-40.15,3.38-50.63-3.48-39.46-17.2-84.27-26.2-83.28Z"/>
        <path class="cls-6" d="M343.24,1132.39c-22.08-18.75-53.78-34.2-60.17-27.02-6.37,7.15,13.34,35.76,29.47,53.14,26.18,28.23,65.83,51.62,73.6,43.73,7.54-7.66-14.24-45.5-42.91-69.84Z"/>
        <path class="cls-6" d="M486.22,1215.18c-7.54.16-15.59,28.09-14.23,53.67,2.09,39.14,26.35,74.65,34.77,72.12,9.19-2.76,1.61-51.31-.41-64.19-1.28-8.22-9.65-61.81-20.14-61.6Z"/>
        <path class="cls-6" d="M484.29,1417.4c-10.89,6.27-4.44,46.19,15.04,74.71,20.34,29.79,57.44,50.89,67.42,42.53,10.6-8.88-8.83-51.43-30.87-79.06-13.19-16.53-40.69-44.47-51.59-38.19Z"/>
        <path class="cls-6" d="M555.12,1608.04c-16.99-9.02-41.39-14.77-45.97-7.61-7.68,12,43.18,55.68,45.3,57.49,13.33,11.35,45.1,38.4,52.79,32.01,8.74-7.27-10.89-60.01-52.12-81.88Z"/>
        <path class="cls-6" d="M512.29,848.39c-9.57,2.6-6.86,46.79,4.95,80.45,2.97,8.47,9.9,28.21,16.47,27.55,7.14-.72,12.31-25.45,10.32-46.73-3.01-32.21-23.07-63.63-31.74-61.27Z"/>
        <path class="cls-6" d="M599.83,1025.59c-9.4.2-16.44,30.71-18.45,49-4.63,42.18,9.97,87.79,21.54,87.51,9.91-.24,17.64-34.22,18.89-57.89,1.99-37.82-11.01-78.85-21.98-78.62Z"/>
        <path class="cls-6" d="M629.2,1297.97c-8.5-2.35-23.37,27.47-31.57,43.9-2.4,4.81-27.87,55.87-17.38,63.31,6.75,4.79,27.44-9.13,39.59-25.68,23.3-31.76,19.25-78.8,9.36-81.53Z"/>
        <path class="cls-6" d="M714.78,1478.65c-7.6-.59-15.46,27.47-19.97,43.58-10.86,38.78-18.23,95.41-7.52,98.56,9.18,2.7,32.35-33.71,38.31-72.09,5.16-33.22-2.35-69.39-10.81-70.05Z"/>
    </g>
    <g>
        <path class="cls-40" d="M1083.9,432.28c-14.57-51.15-67.85-80.81-119-66.24l-396.52,112.93c-51.15,14.57-80.81,67.85-66.24,119l319.2,1120.79c14.57,51.15,67.85,80.81,119,66.24l396.52-112.93c51.15-14.57,80.81-67.85,66.24-119l-319.2-1120.79Z"/>
        <path class="cls-29" d="M1083.9,432.28c-9.84-34.56-37.35-59.28-69.94-67.21l318.41,1118.03c14.57,51.15-15.09,104.43-66.24,119l-396.52,112.93c-16.6,4.73-33.41,4.77-49.07.96l.79,2.76c14.57,51.15,67.85,80.81,119,66.24l396.52-112.93c51.15-14.57,80.81-67.85,66.24-119l-319.2-1120.79Z"/>
        <g>
            <g>
                <path class="cls-29" d="M666.06,564.09c-45.96,13.09-72.7,61.13-59.61,107.09,13.09,45.96,61.13,72.7,107.09,59.61,45.96-13.09,72.7-61.13,59.61-107.09-13.09-45.96-61.13-72.7-107.09-59.61Z"/>
                <path class="cls-10" d="M718.5,565.73c16.38,11.02,29.12,27.64,34.94,48.08,13.09,45.96-13.65,94-59.61,107.09-17.9,5.1-36.1,4.13-52.44-1.64,20.47,13.77,46.62,18.8,72.15,11.53,45.96-13.09,72.7-61.13,59.61-107.09-7.99-28.06-29.02-48.93-54.64-57.97Z"/>
                <circle class="cls-25" cx="689.8" cy="647.44" r="66.51" transform="translate(-255.77 677.39) rotate(-45)"/>
                <path class="cls-7" d="M699.87,581.7c11.28,8.42,19.99,20.46,24.14,35.04,10.06,35.33-10.42,72.12-45.75,82.18-9.51,2.71-19.12,3.19-28.29,1.77,16.05,11.98,37.29,16.62,58.04,10.71,35.33-10.06,55.81-46.86,45.75-82.18-7.35-25.82-28.99-43.69-53.89-47.52Z"/>
                <path class="cls-2" d="M666.69,611.75c-9.44-2.37-19.74,6.2-23,19.16-3.26,12.95,1.76,25.38,11.21,27.75,9.45,2.37,19.74-6.2,23-19.16,3.25-12.95-1.76-25.38-11.21-27.75Z"/>
            </g>
            <g>
                <path class="cls-29" d="M732.3,796.69c-45.96,13.09-72.7,61.13-59.61,107.09,13.09,45.96,61.13,72.7,107.09,59.61,45.96-13.09,72.7-61.13,59.61-107.09-13.09-45.96-61.13-72.7-107.09-59.61Z"/>
                <path class="cls-10" d="M784.75,798.33c16.38,11.02,29.12,27.64,34.94,48.08,13.09,45.96-13.65,94-59.61,107.09-17.9,5.1-36.1,4.13-52.44-1.64,20.46,13.77,46.62,18.8,72.15,11.53,45.96-13.09,72.7-61.13,59.61-107.09-7.99-28.06-29.02-48.93-54.64-57.97Z"/>
                <path class="cls-25" d="M737.82,816.07c-35.33,10.06-55.81,46.86-45.75,82.18,10.06,35.33,46.86,55.81,82.18,45.75,35.33-10.06,55.81-46.86,45.75-82.18-10.06-35.33-46.85-55.81-82.18-45.75Z"/>
                <path class="cls-7" d="M766.12,814.3c11.28,8.42,19.99,20.46,24.14,35.04,10.06,35.33-10.42,72.12-45.75,82.18-9.51,2.71-19.12,3.19-28.29,1.77,16.05,11.98,37.29,16.62,58.04,10.71,35.33-10.06,55.81-46.86,45.75-82.18-7.35-25.82-28.99-43.69-53.89-47.52Z"/>
                <path class="cls-2" d="M732.93,844.35c-9.45-2.37-19.74,6.2-23,19.16-3.25,12.95,1.76,25.38,11.21,27.75,9.45,2.37,19.74-6.2,23-19.16,3.26-12.95-1.76-25.38-11.21-27.75Z"/>
            </g>
            <g>
                <path class="cls-29" d="M798.55,1029.29c-45.96,13.09-72.7,61.13-59.61,107.09,13.09,45.96,61.13,72.7,107.09,59.61,45.96-13.09,72.7-61.13,59.61-107.09-13.09-45.96-61.13-72.7-107.09-59.61Z"/>
                <path class="cls-10" d="M850.99,1030.93c16.38,11.02,29.12,27.64,34.94,48.08,13.09,45.96-13.65,94-59.61,107.09-17.9,5.1-36.1,4.13-52.44-1.64,20.46,13.77,46.62,18.8,72.15,11.53,45.96-13.09,72.7-61.13,59.61-107.09-7.99-28.06-29.02-48.93-54.64-57.97Z"/>
                <path class="cls-25" d="M804.07,1048.67c-35.33,10.06-55.81,46.86-45.75,82.18,10.06,35.33,46.86,55.81,82.18,45.75,35.33-10.06,55.81-46.86,45.75-82.18-10.06-35.33-46.86-55.81-82.18-45.75Z"/>
                <path class="cls-7" d="M832.36,1046.9c11.28,8.42,19.99,20.46,24.14,35.04,10.06,35.33-10.42,72.12-45.75,82.18-9.51,2.71-19.12,3.19-28.29,1.77,16.05,11.98,37.29,16.62,58.04,10.71,35.33-10.06,55.81-46.86,45.75-82.18-7.35-25.82-28.99-43.69-53.89-47.52Z"/>
                <path class="cls-2" d="M799.18,1076.95c-9.45-2.37-19.74,6.2-23,19.16-3.25,12.95,1.76,25.38,11.21,27.75,9.45,2.37,19.74-6.2,23-19.16,3.25-12.95-1.76-25.38-11.21-27.75Z"/>
            </g>
            <g>
                <path class="cls-29" d="M864.79,1261.89c-45.96,13.09-72.7,61.13-59.61,107.09,13.09,45.96,61.13,72.7,107.09,59.61,45.96-13.09,72.7-61.13,59.61-107.09-13.09-45.96-61.13-72.7-107.09-59.61Z"/>
                <path class="cls-10" d="M917.24,1263.53c16.38,11.02,29.12,27.64,34.94,48.08,13.09,45.96-13.65,94-59.61,107.09-17.9,5.1-36.1,4.13-52.45-1.64,20.46,13.77,46.62,18.8,72.15,11.53,45.96-13.09,72.7-61.13,59.61-107.09-7.99-28.06-29.02-48.93-54.64-57.97Z"/>
                <path class="cls-25" d="M870.31,1281.27c-35.33,10.06-55.81,46.86-45.75,82.18,10.06,35.33,46.85,55.81,82.18,45.75,35.33-10.06,55.81-46.86,45.75-82.18-10.06-35.33-46.86-55.81-82.18-45.75Z"/>
                <path class="cls-7" d="M898.61,1279.5c11.27,8.42,19.99,20.46,24.14,35.04,10.06,35.33-10.42,72.12-45.75,82.18-9.51,2.71-19.12,3.19-28.29,1.77,16.05,11.98,37.29,16.62,58.04,10.71,35.33-10.06,55.81-46.86,45.75-82.18-7.35-25.82-28.99-43.69-53.89-47.52Z"/>
                <path class="cls-2" d="M865.42,1309.55c-9.45-2.37-19.74,6.2-23,19.16-3.25,12.95,1.76,25.38,11.21,27.75,9.45,2.37,19.74-6.2,23-19.16,3.25-12.95-1.76-25.38-11.21-27.75Z"/>
            </g>
            <g>
                <path class="cls-29" d="M931.04,1494.49c-45.96,13.09-72.7,61.13-59.61,107.09,13.09,45.96,61.13,72.7,107.09,59.61,45.96-13.09,72.7-61.13,59.61-107.09-13.09-45.96-61.13-72.7-107.09-59.61Z"/>
                <path class="cls-10" d="M983.48,1496.13c16.38,11.02,29.12,27.64,34.94,48.08,13.09,45.96-13.65,94-59.61,107.09-17.9,5.1-36.1,4.13-52.45-1.64,20.47,13.77,46.62,18.8,72.15,11.53,45.96-13.09,72.7-61.13,59.61-107.09-7.99-28.06-29.02-48.93-54.64-57.97Z"/>
                <path class="cls-25" d="M936.56,1513.88c-35.33,10.06-55.81,46.86-45.75,82.18,10.06,35.33,46.85,55.81,82.18,45.75,35.33-10.06,55.81-46.86,45.75-82.18-10.06-35.33-46.86-55.81-82.18-45.75Z"/>
                <path class="cls-7" d="M964.85,1512.1c11.27,8.42,19.99,20.46,24.14,35.04,10.06,35.33-10.42,72.12-45.75,82.18-9.51,2.71-19.12,3.19-28.29,1.77,16.05,11.98,37.3,16.62,58.04,10.71,35.33-10.06,55.81-46.86,45.75-82.18-7.35-25.82-28.99-43.69-53.89-47.52Z"/>
                <path class="cls-2" d="M931.67,1542.15c-9.45-2.37-19.74,6.2-23,19.16-3.25,12.95,1.76,25.38,11.21,27.75,9.45,2.37,19.74-6.2,23-19.16,3.25-12.95-1.76-25.38-11.21-27.75Z"/>
            </g>
            <g>
                <path class="cls-29" d="M926.72,489.85c-45.96,13.09-72.7,61.13-59.61,107.09,13.09,45.96,61.13,72.7,107.09,59.61,45.96-13.09,72.7-61.13,59.61-107.09-13.09-45.96-61.13-72.7-107.09-59.61Z"/>
                <path class="cls-10" d="M979.17,491.49c16.38,11.02,29.12,27.64,34.94,48.08,13.09,45.96-13.65,94-59.61,107.09-17.9,5.1-36.1,4.13-52.44-1.64,20.46,13.77,46.62,18.8,72.15,11.53,45.96-13.09,72.7-61.13,59.61-107.09-7.99-28.06-29.02-48.93-54.64-57.97Z"/>
                <path class="cls-25" d="M932.24,509.23c-35.33,10.06-55.81,46.86-45.75,82.18,10.06,35.33,46.86,55.81,82.18,45.75,35.33-10.06,55.81-46.86,45.75-82.18-10.06-35.33-46.86-55.81-82.18-45.75Z"/>
                <path class="cls-7" d="M960.54,507.46c11.28,8.42,19.99,20.46,24.14,35.04,10.06,35.33-10.42,72.12-45.75,82.18-9.51,2.71-19.12,3.19-28.29,1.77,16.05,11.98,37.29,16.62,58.04,10.71,35.33-10.06,55.81-46.85,45.75-82.18-7.35-25.82-28.99-43.69-53.89-47.52Z"/>
                <path class="cls-2" d="M927.35,537.51c-9.45-2.37-19.74,6.2-23,19.16-3.25,12.95,1.77,25.38,11.21,27.75,9.45,2.37,19.74-6.2,23-19.16,3.26-12.95-1.76-25.38-11.21-27.75Z"/>
            </g>
            <g>
                <path class="cls-29" d="M992.97,722.45c-45.96,13.09-72.7,61.13-59.61,107.09,13.09,45.96,61.13,72.7,107.09,59.61,45.96-13.09,72.7-61.13,59.61-107.09-13.09-45.96-61.13-72.7-107.09-59.61Z"/>
                <path class="cls-10" d="M1045.41,724.09c16.38,11.02,29.12,27.64,34.94,48.08,13.09,45.96-13.65,94-59.61,107.09-17.9,5.1-36.1,4.13-52.44-1.64,20.47,13.77,46.62,18.8,72.15,11.53,45.96-13.09,72.7-61.13,59.61-107.09-7.99-28.06-29.02-48.93-54.64-57.97Z"/>
                <path class="cls-25" d="M998.49,741.84c-35.33,10.06-55.81,46.86-45.75,82.18,10.06,35.33,46.86,55.81,82.18,45.75,35.33-10.06,55.81-46.86,45.75-82.18-10.06-35.33-46.86-55.81-82.18-45.75Z"/>
                <path class="cls-7" d="M1026.78,740.06c11.28,8.42,19.99,20.46,24.14,35.04,10.06,35.33-10.42,72.12-45.75,82.18-9.51,2.71-19.12,3.19-28.29,1.77,16.05,11.98,37.29,16.62,58.04,10.71,35.33-10.06,55.81-46.86,45.75-82.18-7.35-25.82-28.99-43.69-53.89-47.52Z"/>
                <path class="cls-2" d="M993.6,770.11c-9.45-2.37-19.74,6.2-23,19.16-3.26,12.95,1.76,25.38,11.21,27.75,9.45,2.37,19.74-6.2,23-19.16,3.25-12.95-1.76-25.38-11.21-27.75Z"/>
            </g>
            <g>
                <path class="cls-29" d="M1059.21,955.05c-45.96,13.09-72.7,61.13-59.61,107.09,13.09,45.96,61.13,72.7,107.09,59.61,45.96-13.09,72.7-61.13,59.61-107.09-13.09-45.96-61.13-72.7-107.09-59.61Z"/>
                <path class="cls-10" d="M1111.66,956.69c16.38,11.02,29.12,27.64,34.94,48.08,13.09,45.96-13.65,94-59.61,107.09-17.9,5.1-36.1,4.13-52.45-1.64,20.47,13.77,46.62,18.8,72.15,11.53,45.96-13.09,72.7-61.13,59.61-107.09-7.99-28.06-29.02-48.93-54.64-57.97Z"/>
                <path class="cls-25" d="M1064.73,974.44c-35.33,10.06-55.81,46.86-45.75,82.18,10.06,35.33,46.86,55.81,82.18,45.75,35.33-10.06,55.81-46.86,45.75-82.18-10.06-35.33-46.85-55.81-82.18-45.75Z"/>
                <path class="cls-7" d="M1093.03,972.66c11.28,8.42,19.99,20.46,24.14,35.04,10.06,35.33-10.42,72.12-45.75,82.18-9.51,2.71-19.12,3.19-28.29,1.77,16.05,11.98,37.29,16.62,58.04,10.71,35.33-10.06,55.81-46.85,45.75-82.18-7.35-25.82-28.99-43.69-53.89-47.52Z"/>
                <path class="cls-2" d="M1059.85,1002.71c-9.45-2.37-19.74,6.2-23,19.16-3.26,12.95,1.76,25.38,11.21,27.75,9.45,2.37,19.74-6.2,23-19.16,3.25-12.95-1.77-25.38-11.21-27.75Z"/>
            </g>
            <g>
                <path class="cls-29" d="M1125.46,1187.65c-45.96,13.09-72.7,61.13-59.61,107.09,13.09,45.96,61.13,72.7,107.09,59.61,45.96-13.09,72.7-61.13,59.61-107.09-13.09-45.96-61.13-72.7-107.09-59.61Z"/>
                <path class="cls-10" d="M1177.9,1189.29c16.38,11.02,29.12,27.64,34.94,48.08,13.09,45.96-13.65,94-59.61,107.09-17.9,5.1-36.1,4.13-52.45-1.64,20.46,13.77,46.62,18.8,72.15,11.53,45.96-13.09,72.7-61.13,59.61-107.09-7.99-28.06-29.02-48.93-54.64-57.97Z"/>
                <path class="cls-25" d="M1130.98,1207.04c-35.33,10.06-55.81,46.86-45.75,82.18,10.06,35.33,46.86,55.81,82.18,45.75,35.33-10.06,55.81-46.86,45.75-82.18-10.06-35.33-46.85-55.81-82.18-45.75Z"/>
                <path class="cls-7" d="M1159.27,1205.26c11.28,8.42,19.99,20.46,24.14,35.04,10.06,35.33-10.42,72.12-45.75,82.18-9.51,2.71-19.12,3.19-28.29,1.77,16.05,11.98,37.29,16.62,58.04,10.71,35.33-10.06,55.81-46.86,45.75-82.18-7.35-25.82-28.99-43.69-53.89-47.52Z"/>
                <path class="cls-2" d="M1126.09,1235.31c-9.45-2.37-19.74,6.2-23,19.16-3.25,12.95,1.76,25.38,11.21,27.75,9.45,2.37,19.74-6.2,23-19.16,3.25-12.95-1.76-25.38-11.21-27.75Z"/>
            </g>
            <g>
                <path class="cls-29" d="M1191.7,1420.25c-45.96,13.09-72.7,61.13-59.61,107.09,13.09,45.96,61.13,72.7,107.09,59.61,45.96-13.09,72.7-61.13,59.61-107.09-13.09-45.96-61.13-72.7-107.09-59.61Z"/>
                <path class="cls-10" d="M1244.15,1421.89c16.38,11.02,29.12,27.64,34.94,48.08,13.09,45.96-13.65,94-59.61,107.09-17.9,5.1-36.1,4.13-52.45-1.64,20.46,13.77,46.62,18.8,72.15,11.53,45.96-13.09,72.7-61.13,59.61-107.09-7.99-28.06-29.02-48.93-54.64-57.97Z"/>
                <path class="cls-25" d="M1197.22,1439.64c-35.33,10.06-55.81,46.86-45.75,82.18,10.06,35.33,46.86,55.81,82.18,45.75,35.33-10.06,55.81-46.86,45.75-82.18-10.06-35.33-46.86-55.81-82.18-45.75Z"/>
                <path class="cls-7" d="M1225.52,1437.86c11.28,8.42,19.99,20.46,24.14,35.04,10.06,35.33-10.42,72.12-45.75,82.18-9.51,2.71-19.12,3.19-28.29,1.77,16.05,11.98,37.29,16.62,58.04,10.71,35.33-10.06,55.81-46.86,45.75-82.18-7.35-25.82-28.99-43.69-53.89-47.52Z"/>
                <path class="cls-2" d="M1192.33,1467.91c-9.45-2.37-19.74,6.21-23,19.16-3.25,12.95,1.76,25.38,11.21,27.75,9.45,2.37,19.74-6.2,23-19.16,3.25-12.95-1.76-25.38-11.21-27.75Z"/>
            </g>
        </g>
        <polygon class="cls-10" points="1341 1335 1056.9 1415.91 993.67 1193.92 1277.77 1113.01 1273.91 1099.44 989.81 1180.35 928.81 966.17 1212.91 885.26 1209.05 871.69 924.95 952.61 861.47 729.71 1145.56 648.8 1141.7 635.23 857.6 716.14 773.42 420.57 759.85 424.44 844.03 720 559.93 800.92 563.8 814.48 847.9 733.57 911.38 956.47 627.28 1037.38 631.14 1050.95 915.24 970.04 976.24 1184.21 692.14 1265.13 696.01 1278.69 980.1 1197.78 1043.33 1419.77 759.23 1500.68 763.09 1514.25 1047.19 1433.34 1131.81 1730.47 1145.38 1726.6 1060.76 1429.48 1344.86 1348.57 1341 1335"/>
    </g>
    <g>
        <path class="cls-12" d="M2181.66,1300.34c-1.25,1.28-1.92,1.98-1.91,1.99,0,0,.67-.67,1.91-1.99Z"/>
        <path class="cls-27" d="M2610.4,1333.02c-41.72-17.29-83.8-.74-109.21,8.4-129.71,46.65-247.37,52.02-249.63,44.51-3.38-11.25,249.54-61.09,311.69-216.47,6.73-16.81,32.15-80.39,4.23-115.4-16.39-20.55-44.21-22.56-52.7-23.18-55.79-4.03-102,39.42-127.97,64.51-72.63,70.16-188.96,188.32-205.16,204.95-1.24,1.32-1.91,1.99-1.91,1.99,0,0,.67-.71,1.91-1.99,21.47-22.75,216.3-236.65,211.25-426.22-.47-17.73-1.93-72.43-28.16-82.92-31.03-12.4-79.68,43.89-99.26,66.55-51.81,59.95-74.98,120.62-86.05,150.84-54.36,148.41-80.93,283.53-84.64,282.82-2.75-.52,18.56-73.12,1.1-161.75-4.02-20.4-19.7-99.98-56.74-105.18-9-1.26-26.66.14-51.93,32.71-174.54,225.03-73.1,615.27-18.69,681.7,132.27,161.47,572.8-21.11,586.97-105.55,14.35-85.48-358.14,6.66-360.48-46.66-.34-7.75,214.06-1.46,375.21-91.46,21.79-12.17,98.15-54.82,93.77-103.36-2.55-28.21-31.59-49.72-53.6-58.84Z"/>
        <path class="cls-12" d="M2181.66,1300.34c-1.25,1.28-1.92,1.98-1.91,1.99,0,0,.67-.67,1.91-1.99Z"/>
        <path class="cls-6" d="M2364.75,791.2c-31.03-12.4-79.68,43.89-99.26,66.55-51.81,59.95-74.98,120.62-86.05,150.84-54.36,148.41-80.93,283.53-84.64,282.82-2.75-.52,18.56-73.12,1.1-161.75-4.02-20.4-19.7-99.98-56.74-105.18-9-1.26-26.66.14-51.93,32.71-174.54,225.03-73.1,615.27-18.69,681.7,28.43,34.7,71.1,53.5,120.7,60.81,35.61-69.07,67.43-160,31.19-221.73-17.38-29.6-56.1-62.2-69.13-53.87-17.29,11.05,18.27,89.35,12.58,91.93-8.52,3.86-121.06-157.28-85.47-309.04,2.62-11.18,20.03-85.4,51.33-88.35,6.59-.62,18.07,1.51,35.28,24.05,54.09,70.82,34.05,171.88,42.61,172.86,9.42,1.08,26.11-122.15,72.72-269.86,6.29-19.92,22.4-69.72,50.23-131.5,28.16-62.51,44.43-97.86,77.36-133.97,15.61-17.12,40.52-40.48,77.6-61.35-4.11-12.74-10.56-23.58-20.8-27.67Z"/>
        <path class="cls-6" d="M2311.3,965.15c-15.29,16.17-33.29,42.48-32.3,50.41.89,7.07,16.8-1.28,29.18-12.49,20.49-18.55,40.26-53,38.5-60.61-1.61-6.97-21.42,7.92-35.38,22.69Z"/>
        <path class="cls-6" d="M2235.95,1095.25c-22.67,28.56-28.08,93.22-22.16,95.57,7.67,3.05,46.35-93.51,39.97-106.48-2.68-5.45-12.92,4.74-17.81,10.9Z"/>
        <path class="cls-6" d="M2421.75,1110.53c-16.05,17.53-29.11,44.81-23.96,49.19,10.12,8.6,94.33-68.11,87.41-79.42-3.94-6.44-39.79,4.39-63.45,30.23Z"/>
        <path class="cls-6" d="M2417.59,1210.56c-19.06,4.34-43.09,16.71-41.88,26.38,1.18,9.41,26.24,15.75,47.18,11.68,23.25-4.51,45.79-22.7,43.31-32.15-2.45-9.33-29.31-10.3-48.61-5.91Z"/>
        <path class="cls-6" d="M2335.05,1187.06c-4.43-4.04-34.59,17.02-50.37,48.78-8.13,16.36-15.16,41.03-10.72,43.28,9.15,4.64,68.71-85.11,61.09-92.06Z"/>
        <path class="cls-6" d="M2012.68,1275.67c-7.66,2.33-7.33,40.36,5.77,71.86,5.85,14.06,17.88,35.6,24.1,33.53,7.28-2.42,5.73-36.92-4.42-65.41-6.03-16.93-18.77-42.02-25.44-39.99Z"/>
        <path class="cls-6" d="M2190.34,1414.6c-23.33,12.57-35.39,41.28-29.51,47.82,10.15,11.3,83.64-32.56,79.55-47.68-2.27-8.39-29.33-11.3-50.04-.14Z"/>
        <path class="cls-6" d="M2329.57,1482.76c-18.32-5.37-42.69-6.24-43.77-1.65-2.15,9.14,87.22,43.27,91.5,34.91,2.39-4.67-20.42-25.26-47.73-33.26Z"/>
        <path class="cls-6" d="M2409.92,1419.97c-9.01,5.88-27.28,19.94-24.51,27.62,2.68,7.41,24.38,7.25,41,.96,24.41-9.23,44.32-34.13,39.9-42.18-4.51-8.22-35.12-.26-56.39,13.6Z"/>
        <path class="cls-6" d="M2569.15,1407.34c-27.2,2.15-52.82,20.13-50.92,27.2,3.43,12.73,99.09,1.42,100.16-11.95.57-7.13-25.58-17.13-49.24-15.26Z"/>
        <path class="cls-6" d="M2193.6,1651.22c-31.43,22.16-48.68,60.69-42.84,65.95,10.14,9.14,101.46-71.74,94.39-83.81-3.54-6.04-32.25,4.25-51.55,17.86Z"/>
        <path class="cls-6" d="M2291.2,1709.07c-9.29-2.38-18.97-2.77-18.97-2.77-8.2-.33-21.33-.87-22.03,1.81-1.92,7.3,87.26,43.27,91.5,34.91,2.58-5.08-25.57-27.56-50.5-33.94Z"/>
        <path class="cls-6" d="M2372.35,1631.17c-21.31,11.06-40.32,33.67-36.41,39.98,7.45,12.03,101.79-29.04,98.98-42.87-1.59-7.82-35.23-11.32-62.57,2.88Z"/>
    </g>
    <g>
        <path class="cls-8" d="M2008.71,387.13c28.83,80.17,48.8,149.12,62.51,201.83,23.63,90.78,28.8,133.63,28.58,176.82-.15,29.5-.31,60.51-10.72,100.02-4.08,15.49-27.59,100.01-101.81,166.11-39.26,34.97-133.42,93.24-157.18,101.81-22.85,8.24-91.46,8.24-114.31,0-23.76-8.57-117.91-66.84-157.17-101.81-74.22-66.09-97.72-150.61-101.81-166.11-10.41-39.51-10.57-70.52-10.72-100.02-.22-43.19,4.95-86.04,28.58-176.82,13.72-52.71,33.68-121.66,62.51-201.83h471.53Z"/>
        <path class="cls-8" d="M1719.37,1757.05h107.16c-7.15-22.87-18.04-59.74-21.43-106.27-14.29-196.06-1.85-387.72,1.79-452.58.45-7.97,1.58-23.36,7.14-42.14,3.53-11.92,8.19-18.75,21.02-24.38l-124.07.06c7.65,3.78,17.36,12.4,20.89,24.32,5.56,18.78,6.7,34.17,7.14,42.14,3.64,64.86,16.07,256.52,1.79,452.58-3.39,46.54-14.28,83.4-21.43,106.27Z"/>
        <path class="cls-40" d="M1805.1,1650.78c-14.29-196.06-1.85-387.72,1.79-452.58.45-7.97,1.58-23.36,7.14-42.14,3.53-11.92,8.19-18.75,21.02-24.38l-124.07.06c6.21,3.07,13.77,9.33,18.29,17.94,26.43,1.51,63.32-1.28,61.8,3.51-14.78,46.47-17.41,426.87,4.77,603.87h30.69c-7.15-22.87-18.04-59.74-21.43-106.27Z"/>
        <path class="cls-19" d="M1772.95,1107.73c-24.58,0-42.69-2.48-49.12-4.79-19.53-7.01-110.65-62.6-148.5-96.17-65.09-57.72-88.54-131.72-94.18-153.03-9.6-36.27-9.74-65.2-9.89-93.17-.2-39.25,4.25-79.45,27.6-168.78,15.9-60.83,40.1-144.22,61.47-204.66h426.43c21.37,60.44,44.38,143.83,60.27,204.66,23.34,89.33,27.8,129.53,27.6,168.78-.14,27.97-.29,56.9-9.89,93.17-5.64,21.31-29.09,95.31-94.18,153.03-37.85,33.57-128.97,89.15-148.5,96.16-6.43,2.31-24.54,4.79-49.12,4.79Z"/>
        <path class="cls-40" d="M2039.68,1790.93h-538.82c0-17.49,213.98-48.59,213.98-48.59h116.77s208.06,31.06,208.06,48.53v.06Z"/>
        <rect class="cls-8" x="1500.86" y="1790.93" width="538.82" height="14.16"/>
        <path class="cls-31" d="M1775.32,776.12c-75.54,13.7-137.36,12.5-215.87,10.57-24.01-.59-53.65-1.77-87.91-4.2.57,21.45,2.49,44.32,9.61,71.25,5.64,21.31,29.09,95.31,94.18,153.03,37.85,33.57,128.97,89.15,148.5,96.17,6.43,2.31,24.54,4.79,49.12,4.79s42.69-2.48,49.12-4.79c19.53-7.01,110.65-62.6,148.5-96.16,65.09-57.72,88.54-131.73,94.18-153.03,9.6-36.27,9.75-65.2,9.89-93.17.08-15.09-.54-30.32-2.64-48.43-70.28,3.9-126.3,15.93-169.28,28.74-40.27,12-68.94,24.64-127.4,35.24Z"/>
        <path class="cls-15" d="M2071.23,588.96c-13.72-52.71-33.68-121.66-62.51-201.83h-119.1c4.85,24.07,10.39,52.86,16.11,85.31,15.89,90.28,23.84,135.41,25.01,182.18,1.81,72.6,3.33,133.61-30.36,198.25-4.78,9.17-50.37,93.7-146.46,133.96-74.7,31.29-161.01,27.91-240.98-5.29,12.52,17.04,27.6,34.25,45.69,50.37,39.26,34.97,133.42,93.24,157.18,101.81,22.85,8.24,91.46,8.24,114.31,0,23.76-8.57,117.91-66.84,157.18-101.81,74.22-66.09,97.72-150.61,101.81-166.11,10.41-39.51,10.57-70.52,10.72-100.02.22-43.19-4.95-86.04-28.58-176.82Z"/>
        <path class="cls-8" d="M1762.02,412.28h-187.33c-3.6,0-6.54-2.94-6.54-6.54h0c0-3.6,2.94-6.54,6.54-6.54h187.33c3.6,0,6.54,2.94,6.54,6.54h0c0,3.6-2.94,6.54-6.54,6.54Z"/>
        <path class="cls-8" d="M1862.93,412.28h-76.59c-3.6,0-6.54-2.94-6.54-6.54h0c0-3.6,2.94-6.54,6.54-6.54h76.59c3.6,0,6.54,2.94,6.54,6.54h0c0,3.6-2.94,6.54-6.54,6.54Z"/>
        <path class="cls-9" d="M1600.88,536.62h0c-19.95-5.7-31.61-26.69-25.91-46.64h0c5.7-19.95,26.69-31.61,46.64-25.91h0c19.95,5.7,31.61,26.69,25.91,46.64h0c-5.7,19.95-26.69,31.61-46.64,25.91Z"/>
        <g class="cls-43">
            <path class="cls-8" d="M1607.27,894.4c-13.14,8.18-30.44,3.56-37.77-10.07-22.57-41.97-43.3-97.22-39.69-154.59,1.31-20.74,6.47-52.63,13.15-81.22,3.13-13.37,6.73-26.7,10.78-39.86,4.49-14.58,20.3-22.4,34.65-17.23h.01c13.49,4.86,20.71,19.47,16.49,33.17-3.67,11.93-6.93,24.01-9.77,36.12-6.9,29.5-10.92,57.61-11.85,72.38-2.85,45.33,14.48,90.75,33.44,125.92,6.7,12.43,2.53,27.92-9.45,35.38h0Z"/>
        </g>
        <path class="cls-38" d="M1858.1,1769.13c29.8,4.54,71.59,11.33,129.12,21.8h52.47v-.06c0-17.47-208.06-48.53-208.06-48.53h-116.77s-1.45.21-4.1.61c11.08,2.28,24.23,4.91,39,7.73,53.62,10.23,93.63,16.21,108.36,18.46Z"/>
        <path class="cls-8" d="M1720.29,1754.11c0,1.45-15.83,11.07-52.03,16.53-64.45,9.72-97.87,15.57-101.88,11-4.33-4.94,46.14-13.57,79.54-18.98,35.44-5.73,74.38-15.53,74.38-8.55Z"/>
    </g>
    <g>
        <path class="cls-36" d="M837.71,1689.26c7.73-14.09,37.22-16.59,44.8-6.67,3.65,4.77.23,9.79,5.27,20.46,3.66,7.76,6.79,7.91,8.35,12.9,3.32,10.64-4.82,29.38-21.08,34.26-15.25,4.57-30.86-5.07-35.58-16.02-.52-1.21-5.52-3.35-1.76-12.9,4.03-10.23-2.08-28.23,0-32.03Z"/>
        <path class="cls-36" d="M990.57,1691.49c-.87-10.47-3.04-11.99-1.32-16.46,5.6-14.48,36.91-20.32,45.24-10.23,5.6,6.79-2.94,16.25,4.39,31.14,1.82,3.7,4.28,7.03,3.51,11.57-.73,4.34-3.87,6.63-8.35,10.68-13.85,12.52-11.69,15.8-18.01,18.24-8.65,3.33-21.82.7-26.79-7.12-5.33-8.37,3.15-15.76,1.32-37.81Z"/>
        <path class="cls-48" d="M930.98,1158.12c28.17-34.04,66.89-82.68,88.03-62.5,13.24,12.65,37.32,118.17,29.26,222.6-2.02,26.11-6.08,51.76-8.5,65.42-5.84,33.01-10.15,43.88-10.2,68.86-.03,13.32,1.16,30.14,1.7,37.87,1.17,16.68,2.39,26.21,3.4,36.15,4.59,45.23,1.32,46.27,3.4,87.8,1.34,26.67,0,64.56,0,64.56l-53.54,5.16s-.11-24.72-2.55-40.46c-4.51-29.09-10.1-29.2-15.3-55.09-5.62-28.02-4.15-75.74-2.92-99.86.5-9.77-.61-19.56-3.33-28.95-10.28-35.63-19.43-147.89-7.19-202.4,3.58-15.95-60.06-53.5-22.26-99.17Z"/>
        <path class="cls-42" d="M974.9,1191.23c12.21,6.49-9.2,137.98-8.95,164.52.16,17.32,1.86,31.54,3.95,49.04,2.88,24.12,4.14,23.88,5.93,42.04.41,4.16,1.57,16.61,1.98,53.05.42,37.8-.71,34.82,0,47.04,1.88,32.62,9.31,43.17,14.82,73.07,2.77,15.05,5.29,36.25,3.92,62.9l-12.04,1.16s-.11-24.72-2.55-40.46c-4.51-29.09-10.1-29.2-15.3-55.09-5.62-28.02-4.15-75.74-2.92-99.86.5-9.77-.61-19.56-3.33-28.95-10.28-35.63-19.43-147.89-7.19-202.4.92-4.08-2.56-9.57-7.61-16.24,12.58-17.17,24.38-52.42,29.27-49.82Z"/>
        <path class="cls-48" d="M840.89,1433.57c3.34-17.94,2.84-38.6,1.7-79.19-.93-33.38-1.4-50.07-3.4-74.03-3.88-46.51-8.33-59.51-3.4-86.08,3.42-18.46,25.46-86.65,36.38-98.65,33.23-36.5,101.02-18.49,111.09,10.15,1.13,3.21-5.85,56.47-9.78,81.61-1.02,6.51-19.57,162.35-52.27,267.89-4.95,15.97-15.09,30.69-20.82,45.42-2.69,6.92-5.52,16.07-8.5,41.32-4.53,38.37-.89,41.77-5.1,80.91-2.22,20.6,5.31,67.22.85,73.88,0,0-53.38,2.79-53.54-1.58-1.7-45.62-15-96.44-15.3-137.72-.11-14.35-.15-36.15,5.1-63.7,6.08-31.89,11.84-32.5,17-60.25Z"/>
        <path class="cls-32" d="M838.34,1714.17c2.22.13,1.05,11.48,6.8,13.77,1.03.41,3.64,1.07,13.6-5.16,9.41-5.89,9.64-8.09,15.3-11.19,5.86-3.21,17.76-7.5,23.8-2.58,3.91,3.19,1.41,7.04,5.1,18.08,3.46,10.36,9.11,17.3,11.9,20.66,5.69,6.86,11.59,11.21,12.75,12.05,6.96,5.06,9.94,5.17,14.45,10.33,2.28,2.61,5.52,6.41,5.95,12.05.09,1.11.56,7.27-3.4,11.19-2.53,2.51-5.54,2.78-11.05,3.44-6.25.75-12.43,1.99-18.7,2.58-21.21,2-20.1,3.25-26.35,2.58-3.24-.35-11.15-1.27-19.55-6.03-7.58-4.29-6.88-6.77-15.3-12.05-9.83-6.16-13.63-4.56-17.85-9.47-2.47-2.87-4.15-6.9-4.25-19.8-.16-20.46,3.83-40.63,6.8-40.46Z"/>
        <path class="cls-32" d="M989.62,1712.45c2.6.04,2.03,9.04,9.35,13.77,3.31,2.14,8.49,3.59,12.75,1.72,5.15-2.26,4.34-7.35,9.35-13.77,6.04-7.75,17.42-13.42,24.65-10.33,2.77,1.19,2.31,2.54,9.35,12.05,4.07,5.5,7.41,9.34,12.75,15.49,5.21,6,7.82,9.01,10.2,11.19,3.63,3.33,10.08,9.25,19.55,12.91,12.12,4.69,17.12,1,22.95,6.89,4.75,4.8,5.76,11.63,5.95,12.91.4,2.72,1,6.78-.85,10.33-2.47,4.73-8.21,6.45-16.15,7.75-12.13,1.98-21.22,3.47-36.55.86-14.47-2.47-13.09-4.94-33.15-9.47-16.1-3.64-28.9-5.16-28.9-5.16-18.25-2.18-23-.68-27.2-5.16-4.19-4.47-3.7-11.94-2.55-26.68,1.22-15.72,4.65-35.35,8.5-35.29Z"/>
        <path class="cls-13" d="M860.44,1771.84c9.09,4.91,17.05,6.23,21.25,6.89,2.52.39,11.54,1.67,22.95,0,8.16-1.2,11.32-2.99,22.1-4.3,2.85-.35,11.41-.56,18.16-.69,1.5,2.22,2.82,4.99,3.08,8.44.09,1.11.56,7.27-3.4,11.19-2.53,2.51-5.54,2.78-11.05,3.44-6.25.75-12.43,1.99-18.7,2.58-21.21,2-20.1,3.25-26.35,2.58-3.24-.35-11.15-1.27-19.55-6.03-7.58-4.29-6.88-6.77-15.3-12.05-9.83-6.16-13.63-4.56-17.85-9.47-2.47-2.87-4.15-6.9-4.25-19.8,0-.9,0-1.79,0-2.68,9,7.01,22.66,16.54,28.89,19.9Z"/>
        <path class="cls-13" d="M1015.12,1763.24c36.8,9.97,45.81,9.46,50.14,10.33,23.26,4.66,47.21,1.62,60.47-1.7.46,1.66.65,2.94.72,3.42.4,2.72,1,6.78-.85,10.33-2.47,4.73-8.21,6.45-16.15,7.75-12.13,1.98-21.22,3.47-36.55.86-14.47-2.47-13.09-4.94-33.15-9.47-16.1-3.64-28.9-5.16-28.9-5.16-18.25-2.18-23-.68-27.2-5.16-3.39-3.63-3.71-9.22-3.1-19.07,13.43,3.11,29.73,6.58,34.55,7.88Z"/>
        <path class="cls-45" d="M1006.07,1729.13c1.76.12,5.03.35,7.61-1.33,1.51-.99,1.86-2.03,2.49-3.92.55-1.63,1.23-3.65,2.87-6.25,3.93-6.2,9.46-9.39,11.82-10.76,2.8-1.62,5.8-2.86,8.93-3.7l.79,3.05c-2.87.77-5.62,1.91-8.18,3.39-2.35,1.36-7.22,4.18-10.74,9.73-1.44,2.27-2.03,4.02-2.55,5.56-.72,2.13-1.33,3.97-3.75,5.55-2.45,1.6-5.23,1.92-7.33,1.92-.86,0-1.6-.05-2.17-.09-2.95-.21-5.79-1.07-8.43-2.56l1.52-2.75c2.24,1.26,4.64,1.99,7.13,2.17Z"/>
        <path class="cls-45" d="M844.02,1727.3c2.4,1.15,5.08.26,8.89-1.23,2.44-.95,5.29-2.53,8.24-4.56,2.34-1.61,3.61-2.73,4.85-3.82,1.11-.98,2.26-1.99,4.09-3.27,3.04-2.12,6.42-3.91,10.06-5.3l1.1,2.95c-3.4,1.3-6.56,2.97-9.39,4.94-1.68,1.18-2.72,2.09-3.82,3.05-1.3,1.15-2.65,2.33-5.14,4.05-3.14,2.17-6.21,3.86-8.87,4.89-2.49.97-5.05,1.97-7.6,1.97-1.25,0-2.5-.24-3.74-.83-1.46-.7-2.71-1.8-3.73-3.29l2.56-1.79c.7,1.02,1.54,1.77,2.5,2.23Z"/>
        <path class="cls-42" d="M833.82,1526.94c7.97-33.04,16.33-55.11,16.33-55.11,3.82-10.09,5.95-14.39,7.62-23.15,3.13-16.45.15-25.23,0-44.09-.13-15.72,1.81-25.08,3.26-36.37,8.11-63.02,14.2-111.65,6.53-147.7-2.81-13.22-9.02-31.93-24.56-53.11-3.53,11.5-6.19,21.38-7.21,26.87-4.93,26.57-.48,39.57,3.4,86.08,2,23.96,2.46,40.65,3.4,74.02,1.14,40.59,1.64,61.25-1.7,79.19-5.16,27.75-10.92,28.36-17,60.25-5.25,27.55-5.2,49.35-5.1,63.7.3,41.28,13.6,92.1,15.3,137.72.05,1.38,5.44,2.05,12.79,2.31-5.12-32.52-8.54-60.48-10.88-82.43-6.85-64.29-4.53-78.44-2.18-88.18Z"/>
        <path class="cls-24" d="M985.67,610.74c1.31.91,2.24,11.93,1.89,29.24-.08,4-.12,5.99,0,7.37.82,9.3,4.34,11.95,6.85,21.25.9,3.32,2.44,9.01,1.71,16.04-.79,7.64-3.46,9.18-5.57,17.78-1.77,7.22-1.54,12.86-1.28,19.08.55,13.35,3.48,14.98,4.71,26.45.93,8.67,2.49,23.25-5.99,35.12-1.3,1.81-7.77,10.87-19.27,13.01-11.26,2.1-20.31-3.74-25.26-6.94-17.11-11.04-23.02-29.34-24.4-33.82-10.48-34.01,9.91-67.16,23.55-89.33,18.45-29.99,39.12-58,43.06-55.26Z"/>
        <path class="cls-3" d="M1030.11,782.38c5.85-1.19,13.93,13.68,18.87,22.78,4.37,8.05,7.66,16.89,11.61,36.74,1.56,7.84,4.24,22.49,6.53,46.3,3.44,35.73-.52,24.11,2.18,59.52.66,8.7,1.45,16.57-2.9,24.99-4.29,8.29-13.85,17.65-21.04,16.17-8.23-1.7-13.5-17.64-18.14-83.04-4.14-58.39-8.59-121.12,2.9-123.46Z"/>
        <path class="cls-49" d="M1060.07,939.59c-.8-5.39-1.32-9.18,0-13.47.78-2.53,2.48-6.13,10.16-12.49,4.79-3.97,8.95-6.56,24.43-14.94,15.14-8.2,14.1-7.31,16.69-9.06,4.9-3.31,8.55-6.43,15.48-9.31,6.88-2.86,9.7-2.44,11.61-1.47,2.31,1.18,4.4,3.73,4.6,6.61.17,2.56-1.23,4.44-3.39,7.35-2.77,3.72-5.87,4.47-5.56,5.63.31,1.18,3.31.24,6.53,2.2,2.05,1.25,4.48,3.85,4.6,6.86.13,3.4-2.81,4.99-1.93,6.86.75,1.6,3.01.7,5.56,2.69,2.7,2.11,3.25,5.55,3.39,6.37.49,3.03-.46,5.37-1.69,8.33-.24.58-1.96,4.61-4.84,8.08-14.44,17.42-33.62,22.78-33.62,22.78-13.83,3.87-39.42,6.01-47.41-6.61-2.82-4.46-3.85-11.41-4.6-16.41Z"/>
        <path class="cls-17" d="M1116.18,951.54h0c1.95-.44,3.18-2.42,2.74-4.4l-18.89-84.98c-.44-1.97-2.39-3.22-4.34-2.78h0c-1.95.44-3.18,2.42-2.74,4.39l18.89,84.98c.44,1.97,2.39,3.22,4.34,2.78Z"/>
        <path class="cls-14" d="M961.74,743.3c2.2,1.53.67,7.37-.16,9.22-.5,1.1-2.29,4.72-5.99,6.61-6.75,3.46-17.09-.26-18.14-5.51-.73-3.63,1.12-5.01,1.96-5.77,6.64-6.01,17.62-7.82,22.32-4.55Z"/>
        <path class="cls-47" d="M1025.83,778.71c-.42-.39.07.06-14.15-5.88-22-9.19-25.13-10.75-32.56-13.23-4.01-1.34-15.56,4.5-25.69,2.54-17.07-3.31-14.4-8.91-28.81-11.35-21.9-3.71-25.93-11.32-42.46-9.55-1.6.17-8.58.99-16.99,4.41-2.44.99-6.28,2.72-21.23,13.23-9.09,6.39-15.26,11.08-21.94,16.17-19.28,14.69-22.91,16.33-27.43,19.31-4.16,2.75,10.54,4.75,15.4,10.82,3.6,4.49,4.31,9.39,4.95,13.23,4.88,29.2,5.51-4.8,17.69,86.71,4.6,34.53,6.9,51.8,7.08,62.46.25,14.83-.62,25.04-4.25,61.73-5.25,53.11-6.05,58.14-7.08,69.81-4.54,51.66,1.58,61.17,1.42,130.81-.2,81.57-10.53,83.51-.71,97.74,30.43,44.09,248.19,30.46,246.36,10.62-.62-6.66-5.86-191.31-14.92-245.04-6.29-37.28-8.55-40.93-11.32-66.87-3.24-30.29-3.43-55.91-3.54-77.9-.18-36.13,2.4-33.49,1.42-66.87-2.35-79.54-14.94-96.96-21.23-102.88Z"/>
        <path class="cls-8" d="M1216.95,893.72l7.98,16.9s-19.46,11.18-42.81,24.62c-22.8,13.12-39.54,22.05-39.54,22.05,0,0-22.54-4.71-21.41-11.39,1.28-7.56,95.78-52.18,95.78-52.18Z"/>
        <path class="cls-36" d="M1066.78,916.66c1.89-2.65,2.57-3.68,8.53-9.9,1-1.04,3.81-4.21,9.43-10.53,2.17-2.44,3.12-3.51,4.84-3.92.97-.23,2.51-.32,8.71,3.18,6.31,3.57,8.71,5.93,10.16,7.59,2.77,3.18,2.7,4.52,2.66,4.9-.34,3.24-5.29,4.96-6.53,5.39-1.31.45-4.66,1.62-7.98.24-2.66-1.1-3.64-3.13-4.6-2.69-.98.45-.3,2.77-.73,5.39-.66,4.03-3.76,7.71-6.77,9.06-7.23,3.24-20.8-4.4-17.72-8.72Z"/>
        <path class="cls-36" d="M1125.13,945.22c-1.52-.25-4.93-.82-6.29-3.43-.95-1.83-.65-4.21.24-5.88,1.56-2.91,5-3.77,4.84-4.16-.09-.21-1.07,0-2.9.49-4.75,1.25-4.86,1.54-5.8,1.47-2.58-.18-5.31-2.6-5.56-5.14-.1-1.05.41-2.09,1.45-4.16.71-1.42,1.71-3.39,3.63-5.63,2.5-2.92,4.82-4.28,4.6-4.65-.2-.33-1.86.9-4.35.98-.19,0-3.8.09-5.32-1.71-.42-.5-2.07-2.78,2.9-12.98,2.78-5.71,5.51-9.51,8.47-13.72,1.05-1.49,2.35-3.35,3.85-5.51.63-.29,1.27-.58,1.96-.86,6.88-2.86,9.7-2.44,11.61-1.47,2.31,1.18,4.4,3.73,4.6,6.61.17,2.56-1.23,4.44-3.39,7.35-2.77,3.72-5.87,4.47-5.56,5.63.31,1.18,3.31.24,6.53,2.2,2.05,1.25,4.48,3.85,4.6,6.86.13,3.4-2.81,4.99-1.93,6.86.75,1.6,3.01.7,5.56,2.69,2.7,2.11,3.25,5.55,3.39,6.37.45,2.82-.34,5.06-1.45,7.74-8.27,6.98-19.42,15.08-25.64,14.06Z"/>
        <path class="cls-33" d="M1120.42,913.38h0c-.44-.41-.47-1.11-.06-1.56,2.29-2.52,4.59-5.04,6.9-7.56,1.77-1.93,3.53-3.85,5.29-5.77.41-.45,1.1-.47,1.54-.05h0c.44.41.47,1.11.06,1.55-1.76,1.92-3.53,3.84-5.29,5.77-2.31,2.52-4.6,5.04-6.89,7.56-.41.45-1.09.48-1.54.06Z"/>
        <path class="cls-33" d="M1124.89,930.65h0c-.42-.44-.41-1.14.02-1.57,3.48-3.39,7.1-6.71,10.77-9.87,1.97-1.7,4.01-3.39,6.05-5.04.47-.38,1.16-.3,1.53.18h0c.37.48.29,1.16-.18,1.54-2.03,1.63-4.04,3.31-6,5-3.64,3.13-7.22,6.42-10.68,9.78-.43.42-1.11.41-1.53-.03Z"/>
        <path class="cls-30" d="M1104.57,901.4c-1.39-.99-2.39-1.43-3.54-1.38-1.58.08-2.71,1.06-3.17,1.47-.64.56-1.67,1.46-1.81,2.76-.19,1.66,1.18,2.98,2.27,4.04,1.11,1.07,3.07,2.99,6.08,3.03,2.1.03,5.33-.84,5.9-2.85.7-2.49-3.13-5.22-5.71-7.07Z"/>
        <path class="cls-30" d="M1122.26,909.03c-.17.53-.48.87-2.09,2.11-1.75,1.35-2.62,2.02-3.08,2.2-.53.21-2.95,1.16-4.63-.09-.89-.67-1.17-1.67-1.36-2.39-.46-1.69-.63-4.96,1.63-6.71,1.75-1.35,3.88-.96,4.63-.83.67.12,3.13.67,4.35,2.85.26.46.92,1.64.54,2.85Z"/>
        <path class="cls-34" d="M971.92,1357.46h0c-1.4-.05-2.5-1.25-2.46-2.68,2.01-64.25,4.09-158.58,2.82-248.04-.22-15.72-.44-23.43-.73-34.11-.35-12.53-.78-28.12-1.45-64.1-.25-13.58-.44-24.86-.6-34.37-.68-40.44-.82-48.86-3.01-66.55-.74-5.98-1.58-11.93-2.55-18.83-1.85-13.11-4.14-29.42-6.89-54.13-1.23-11.06-2.37-22.21-3.39-33.17-.13-1.43.89-2.7,2.29-2.84h0c1.39-.14,2.63.91,2.76,2.34,1.02,10.94,2.16,22.05,3.38,33.08,2.73,24.64,5.03,40.9,6.87,53.97.97,6.92,1.82,12.89,2.56,18.92,2.22,17.97,2.37,26.44,3.05,67.12.16,9.51.35,20.79.6,34.36.67,35.96,1.1,51.54,1.44,64.05.3,10.7.51,18.43.73,34.18,1.27,89.57-.81,183.98-2.82,248.29-.04,1.44-1.22,2.56-2.62,2.52Z"/>
        <polygon class="cls-39" points="1143.67 951.04 1017.42 909.52 972.43 965 1103.4 1004.32 1143.67 951.04"/>
        <path class="cls-20" d="M1143.67,951.04c6.65-2.83,96.87-50.71,96.87-50.71,0,0-66.68,56.03-97.59,80.1-33.48,26.07-38.57,32.18-41.36,30.13-6.39-4.71,14.58-47.83,42.08-59.52Z"/>
        <g>
            <path class="cls-4" d="M925.78,874.3c5.13,1.84,8.51,4.93,11.15,7.71,16.26,17.15,23.8,40.78,24.12,41.78,3.28,10.45,5.09,16.2,4.4,23.88-1.24,13.74-8.84,23.9-15.01,30l-3.7-3.83c5.53-5.47,12.34-14.53,13.43-26.65.59-6.6-.9-11.35-4.17-21.77-.07-.23-7.48-23.43-22.89-39.69-2.32-2.45-5.03-4.91-9.1-6.37-5.17-1.85-15.56-2.71-21.46,1.32l-2.96-4.44c7.91-5.4,20.25-4.05,26.18-1.93Z"/>
            <path class="cls-4" d="M947.11,970.56c2.83-.83,5.79.82,6.61,3.69.82,2.87-.81,5.86-3.64,6.7-2.83.83-5.79-.82-6.61-3.69-.82-2.87.81-5.86,3.64-6.7Z"/>
            <path class="cls-4" d="M898.51,877.07l3.45,4.06c-5.39,4.71-7.3,15.09-6.9,20.62.32,4.36,1.95,7.66,3.67,10.57,11.43,19.34,31.59,32.68,31.79,32.81,9.06,5.94,13.2,8.65,19.64,9.8,11.83,2.12,22.26-2.15,28.92-6.12l2.68,4.62c-7.43,4.42-19.1,9.18-32.52,6.77-7.5-1.34-12.5-4.62-21.59-10.58-.87-.57-21.4-14.16-33.46-34.55-1.96-3.31-4.01-7.43-4.41-12.93-.46-6.35,1.5-18.77,8.72-25.07Z"/>
            <path class="cls-4" d="M983.21,946.51c2.52,1.56,3.31,4.88,1.77,7.43-1.54,2.55-4.82,3.35-7.34,1.8-2.52-1.56-3.31-4.88-1.77-7.43,1.54-2.55,4.82-3.35,7.34-1.8Z"/>
        </g>
        <path class="cls-18" d="M999.96,798.03c11.33,31.25,16.92,66.87,15.33,97.72l-5.91-.31c1.55-30.08-3.91-64.83-14.98-95.34-11.15-30.73-22.72-45.03-30.13-45.76,0,0-.29-.46-.66-1.62-.33-1.02-.5-1.96-.55-3.03-.07-1.26.03-1.83.03-1.83,13.41,2.03,25.96,20.11,36.86,50.17Z"/>
        <path class="cls-4" d="M1008.92,882.59c7.09-1.91,14.37,2.36,16.26,9.54,1.89,7.18-2.33,14.55-9.42,16.47-7.09,1.91-14.37-2.36-16.26-9.54-1.89-7.18,2.33-14.55,9.42-16.47Z"/>
        <path class="cls-16" d="M1010.46,888.46c3.89-1.05,7.88,1.29,8.92,5.23,1.04,3.94-1.28,7.98-5.17,9.03-3.89,1.05-7.88-1.29-8.92-5.23-1.04-3.94,1.28-7.98,5.17-9.03Z"/>
        <path class="cls-18" d="M870.06,728.6c.55-.18.32,7.66.32,7.66-7.27,5.48-6.2,26.25-.88,54.2,6.08,31.96,19.26,63.75,35.94,88.74l-4.98,3.16c-17.07-25.56-29.94-58.23-36.15-90.88-5.96-31.33-9.74-57.66,5.76-62.87Z"/>
        <path class="cls-36" d="M956.04,731.71c1.16,5.64-2.92,6.64-3.5,16.29-1.04,17.32,8.16,40.53,4.5,46.3-3.21,5.06-12.32-6.96-23.52-9.39-6.56-1.42-23.19-10.7-41.81-24.16-9.96-7.2-17.35-12.71-18.18-21.25-.62-6.34,2.73-10.85,4.89-14.87,13.71-25.42-4.58-59.06,0-60.9,3.82-1.54,8.97,24.96,32.17,41.78,20.51,14.87,42.79,13.23,45.45,26.2Z"/>
        <path class="cls-33" d="M952.54,748c.58-9.65,4.66-10.65,3.5-16.29-2.67-12.97-24.95-11.33-45.45-26.2-9.8-7.11-16.38-15.94-21-23.66,4.25,18.3,12.49,39.81,28.78,57.03,7.37,7.79,17.85,18.56,30.3,16.52,1.44-.24,2.8-.63,4.07-1.14-.25-1.96-.34-4.04-.2-6.27Z"/>
        <path class="cls-8" d="M854.3,751.8c.79-4.24,4.93-8.56,8.78-19.55,1.97-5.64,1.78-9.8,4.35-10.78,3.12-1.18,7.23,3.49,11.13,7.35,11.17,11.07,36.52,24.5,57.08,32.1,6.67,2.47,15.13,23.83,17.7,33.37,3.81,14.13-102.1-25.97-99.03-42.49Z"/>
        <path class="cls-8" d="M980.87,759.28c-1.35-4.09-19.63-19.7-19.63-15.15,0,9.23-6.12,11.78-7.7,13.73-4.5,5.56.87,26.92,3.5,36.44,3.03,10.95,26.14-27.99,23.83-35.02Z"/>
        <path class="cls-36" d="M985.38,619.23c1.58,2.56-3.92,28.87-1.14,39.81.59,2.32,5.97,17.99-13.17,52.67-2.18,3.95-.84,6.68-3.07,11.84-1.36,3.14-2.64,6.11-5.27,8.57-6.53,6.13-17.08,5.15-19.75,4.9-4.51-.42-10.58-1.89-22.38-10.21-13.39-9.44-21.7-18.92-23.7-21.23-11.33-13.1-22.59-26.11-29.4-46.14-5.23-15.36-10.58-31.1-3.51-49,1.16-2.94,11.44-27.64,39.94-35.11,22.09-5.79,43.39,1.84,50.91,8.57,3.56,3.19,16.76,15.36,17.99,18.37,1.2,2.93,9.93,12.68,12.55,16.95Z"/>
        <path class="cls-23" d="M949.38,597.71c3.22.34,17.61,1.11,27.36,14.64,7.83,10.86,6.1,33.74,6.83,33.74.91-.01,9.02-25.25,2.11-43.18-6.17-15.99-20.75-23.65-27.8-28.26-5.6-3.67-19.4-12.42-38.62-11.84-17.16.52-35.58,8.38-35.06,13.09.88,7.89,50.91,20.31,65.18,21.82Z"/>
        <path class="cls-23" d="M934.51,576.55c-13.05-6.15-19.69-9.24-25.69-9.83-9.91-.97-36.03-9.83-54.23,21.39-5.35,9.18-6.28,18.5-6.28,18.5-.45,5.79-2.51,17.63-3.92,21.47-2.67,7.28-9.71,15.3-12.06,21.9-2.01,5.63-.6,17.54-1.71,26.6-1.31,10.66-8.1,11.7-10.28,20.81-4,16.77,2.01,26.92-.85,30.64-20,26.03-.22,39.38,27.75,29.4,12.15-4.33,29.98,16.89,36.95,11.53,6.11-4.7-3.01-20.7,2.71-34.81,3.93-9.7,9.75-11.22,11.13-16.7,3.52-13.97-6.39-20.57-2.92-31.92,2.96-9.69,4.57-7.49,8.57-18.79,4-11.27.08-16.25,5.14-22.55,4.64-5.78,9.03-2.97,15.98-8.67,8.82-7.24,5.24-14.62,13.13-24.86,9.69-12.58,22.7-11.29,22.83-17.34.09-4.25-8.69-8.48-26.26-16.77Z"/>
        <g>
            <path class="cls-36" d="M894.7,649.46c5.54-1.58,10.87,5.41,11.15,5.78,7.87,10.6,3.95,31.81-2.57,33.74-5.86,1.74-16.68-11.27-16.29-24.1.16-5.37,2.38-13.9,7.72-15.42Z"/>
            <g>
                <path class="cls-33" d="M901.26,678.01c.23.25.39.4.39.43,0,0-.16-.18-.39-.43Z"/>
                <path class="cls-33" d="M901.9,661.56c2.03.62,3.66,2.42,4.42,4.79.28.86-.23,1.8-1.04,1.94-.61.1-1.17-.33-1.39-.98-.48-1.48-1.45-2.58-2.66-2.95-1.64-.5-3.44.54-4.16,1.8-.78,1.36-.6,3.69.5,6.39.81,1.99,2.09,3.64,3,4.69-.67-.74-1.17-1.3.04.04.2.23.38.43.53.59.16.18.32.35.51.57,2.36,2.62.31,2.87.11,2.87-1.77,0-3.6-2.35-4.59-3.86-2.37-3.62-4.39-9.15-2.26-12.87,1.22-2.12,4.09-3.9,6.99-3.02Z"/>
                <path class="cls-33" d="M901.13,677.87c-.2-.23-.38-.42-.53-.59-.01-.01-.03-.03-.04-.04.24.26.49.55.7.77-.04-.04-.08-.09-.13-.14Z"/>
            </g>
            <path class="cls-33" d="M888.38,656.11c-1.1,2.84-2.16,7.55-.94,13.9,1.72,8.86,6.89,16.25,10.71,17.58.02.04.03.08.05.12.63,1.66,2.31,6.09,6.57,6.09h0c3.27,0,4.1-2.5,4.37-4.62.11-.84-.44-1.6-1.19-1.65h0c-.68-.05-1.26.51-1.36,1.26-.22,1.82-.69,2.11-1.82,2.11h0c-2.26,0-3.36-2.08-4.21-4.33-.31-.83-.59-1.54-1.39-1.68-2.59-.44-7.61-7.15-9.23-15.51-.87-4.49-.61-8.57.78-12.13.55-1.41,1.3-3.33,3.06-4.36,1.88-1.1,3.85-.58,4.69-.36,2.97.78,4.86,3.2,5.86,4.91.36.62,1.08.81,1.67.47.67-.4.9-1.36.48-2.07-1.24-2.11-3.61-5.12-7.42-6.12-1.02-.27-3.74-.98-6.46.61-2.57,1.5-3.61,4.17-4.23,5.76ZM898.8,687.76h0s0,0,0,0Z"/>
            <path class="cls-33" d="M906.08,667.72c.17.42-1.12.97-2.07,2.57-1.85,3.1-.56,6.95-1.07,7.07-.38.09-1.33-1.99-1.43-4.26-.05-1.04-.14-3.15,1.14-4.5,1.23-1.28,3.23-1.37,3.43-.88Z"/>
        </g>
        <path class="cls-35" d="M876.14,1156.52c-.35-35.76,3.81-49.75,7.26-85.25,11.22-115.44-12.68-173.97-18.87-188.13-8.99-20.6-17.73-32.63-30.47-41.15-4.73-3.17-9.64-5.59-14.58-7.42,2.44,5.21,5.55,13.51,13.14,70.53,4.6,34.53,6.9,51.8,7.08,62.46.25,14.83-.62,25.04-4.25,61.73-5.25,53.11-6.05,58.14-7.08,69.81-4.54,51.66-26.84,204.52-17.02,218.75,7.05,10.22,35.67,25.62,58.29,30.13,7.4-27.45,6.87-152.98,6.49-191.47Z"/>
        <path class="cls-37" d="M853.89,1052.66c17.35,12.78,34.14,14.56,67.72,18.13,40.4,4.29,73.27-1.81,94.33-5.88,15.23-2.94,28.03-6.36,37.62-9.23-1.71-8.88-2.98-16.28-4.37-29.32-.39-3.65-.73-7.23-1.04-10.75-41.03,9.67-72.04,6.43-91.71,2.27-44.5-9.43-98.97-37.98-104.97-41.15-3.52-1.86-7.53-4.04-11.74-6.32.09,13.43-.88,24.58-4.28,58.9-.17,1.67-.33,3.29-.48,4.87,5.43,6.79,11.73,13.19,18.92,18.49Z"/>
        <path class="cls-8" d="M900.15,954.96c-7.35-16.52-4.11-14.02-20.39-64.55-10.65-33.08-17.57-51.3-29.12-68.3-6.73-9.9-12.98-15.1-25.48-25.52-4.51-3.75-8.99-7.12-15.29-7.51-8.29-.51-14.36,4.47-15.29,5.25-7.06,5.96-8.35,14.82-9.47,23.27-1.66,12.62.28,22.6.73,24.77,12.64,61.98,18.93,83.31,18.93,83.31,12.25,41.54,16.9,52.72,22.57,63.8,9.79,19.14,14.99,28.99,26.21,35.28,24.78,13.89,63.86,1.96,69.9-17.26,3.79-12.05-8.11-18.39-23.3-52.54Z"/>
        <path class="cls-37" d="M1052.22,974.52c.77-.85,2.78-3.09,5.32-2.94,1.38.08,2.43.85,3.14,1.47,5.36,4.67,9.79,16.94,10.4,18.62,4.6,12.7,4.3,10.3,5.8,15.43,1.11,3.78,2.99,10.93,3.63,20.09.5,7.22-.14,10.3-1.45,12.98-.71,1.46-.67,4.29-6.05,6.61-6.05,2.62-13.62-4.07-15.72-5.88-21.34-18.44-10.1-60.8-5.08-66.38Z"/>
        <path class="cls-36" d="M1050.79,1031.87c3.11.32,2.8-.38,23.58-6.61,16.56-4.97,24.91-7.45,28.66-7.35,6.33.17,11.58,1.64,16.69-1.84,1.37-.93,3.21-2.82,6.89-6.61,3.84-3.95,6.58-7,6.89-7.35,8.5-9.43,15.87-10.7,25.4-20.58,6.65-6.89,3.65-6.88,11.97-16.17,0,0,3.49-3.9,18.14-17.27h0s-1.5-3.79-3.63-4.41c-1.92-.56-3.08,1.86-7.26,3.67-2.53,1.1-3.68.9-5.8,1.47-4.9,1.31-7.65,4.73-10.88,8.08,0,0-4.21,4.37-14.51,12.13-8.3,6.25-16.12,8.75-23.22,11.02-11.22,3.59-18.82,3.78-29.02,4.04-4.43.11-8.88,0-9.8-2.2-.76-1.83,1.53-3.65,5.08-10.29,2.95-5.51,4.4-8.32,3.63-11.39-.98-3.86-4.74-5.87-5.44-6.25-1.15-.62-4.16-2.22-6.89-1.1-2.18.89-2.85,2.96-4.72,6.61-1.7,3.32-3.99,6.3-5.8,9.55-2.13,3.81-11.76,19.33-26.85,26.46-12.04,5.68-18.44,1.71-20.68,6.25-3.88,7.85,10.97,28.44,27.57,30.13Z"/>
        <path class="cls-8" d="M1056.03,971.98s-16.12,3.32-41.36,8.08c-5.53,1.04-28.53,5.05-55.87,0-18.39-3.4-48.35-8.93-67.48-29.39-2.27-2.43-4.89-5.61-9.43-6.61-13.65-3.03-31.79,16.35-38.46,36.01-1.89,5.58-13.63,8.65-10.65,19.9.97,3.67,13.28,22.36,33.87,35.22,12.95,8.09,27.69,13.43,58.77,17.64,35.33,4.78,59.36,3.69,103.03,1.47,23.1-1.17,46.54-6.91,46.56-8.66,0-.99-8.83,2.91-19.71-29.56-7.49-22.34.73-44.09.73-44.09Z"/>
        <path class="cls-34" d="M984.35,983.41c-3.7,0-7.16-.13-10.29-.39-50.74-4.23-73.63-23.21-74.58-24.02-.18-.15-.3-.34-.35-.56-.24-.93-24.2-93.17-39.38-114.87-.33-.47-.26-1.1.16-1.46.28-.24.56-.28.75-.28.37,0,.71.17.91.47,14.77,21.37,36.82,104.48,39.29,113.89.24.9.78,1.69,1.53,2.24,6.04,4.35,29.08,18.83,71.85,22.39,3.11.26,6.55.39,10.22.39,25.46,0,57.4-6.19,70.74-9.46.09-.02.18-.03.27-.03.5,0,.94.34,1.07.82.08.31.04.6-.1.85-.15.26-.39.44-.69.51-13.44,3.29-45.65,9.52-71.41,9.52Z"/>
        <path class="cls-34" d="M879.76,986.85c-.08,0-.16,0-.25-.03-.3-.07-.54-.25-.7-.52-.15-.26-.19-.56-.11-.85,1.8-6.38,5.73-15.44,14.25-22.33,1.92-1.55,4-2.93,6.2-4.11.17-.09.35-.14.54-.14.34,0,.78.17,1,.65.24.54.02,1.16-.51,1.44-2.08,1.11-4.05,2.42-5.86,3.89-8.06,6.52-11.79,15.12-13.51,21.19-.13.48-.56.81-1.05.81Z"/>
        <path class="cls-30" d="M1079.07,961.04c.07-2.3,2.17-3.75,2.42-3.92,2.31-1.55,4.86-.65,5.32-.49.5.18,2.59.95,3.63,3.18.73,1.59,1.09,4.25-.48,5.88-1.64,1.7-4.27,1.15-5.08.98-2.53-.53-5.89-2.66-5.8-5.63Z"/>
        <path class="cls-30" d="M1115.59,922.1c-1.38.7-2.88,1.46-3.63,3.18-.76,1.75-.67,4.3.73,5.39.63.49,1.4.5,2.9.49,2.57-.01,4.34-.02,6.05-1.22.63-.44,2.56-1.81,2.66-4.16.08-2.03-1.25-3.9-2.9-4.65-2.04-.93-4.04.09-5.8.98Z"/>
        <path class="cls-30" d="M1125.99,933.61c-1.57.3-2.56.49-3.63,1.22-.55.38-2.36,1.64-2.42,3.67-.05,1.61,1.04,2.76,1.21,2.94,1.54,1.59,3.89,1.42,6.53,1.22,3.03-.22,4.54-.33,5.32-1.47,1.51-2.22-.57-6.98-3.39-7.84-.9-.27-1.81-.1-3.63.24Z"/>
    </g>
    <g>
        <g>
            <g>
                <path class="cls-11" d="M1285.34,1189.59c-1.48-1.29-2.06-2.84-2.36-3.61-1.28-3.31-5.28-13.1-6.64-15.42-5.87-9.97-37.96-9.26-43.83,3.61-2.09,4.58-1,11.02.47,19.72.27,1.6.72,3.76,1.89,6.23,1.38,2.9,3.06,4.79,4.01,5.83,1.85,2.04,3.7,3.35,7.42,5.99.92.65,2.47,1.66,5.58,3.69,3.19,2.07,4.36,2.78,6.1,3.48,1.02.41,1.9.64,3.64,1.12,1.98.54,3.73.88,7.15,1.54,3.48.67,4.18.74,5.21.49.77-.19,2.43-.6,3.27-2.07.87-1.53.44-3.49-.37-4.71-.92-1.4-2.16-1.58-5.53-2.8-.75-.27-4.74-1.72-7.7-3.29-3.14-1.66-5.21-3.51-6.16-4.37-4.87-4.39-7.59-9.74-7.21-10.02.28-.21,2.08,2.52,6.63,6.3,3.86,3.21,6.85,4.81,7.55,5.18.96.51,2.66,1.2,6.05,2.59,3.83,1.57,5.87,2.3,8.3,2.9,4.34,1.07,5.31.57,5.73.28,1.53-1.03,2.22-3.43,1.57-5.19-.47-1.27-1.54-1.9-6.13-3.92-5.26-2.32-4.92-1.96-6.23-2.66-3.27-1.74-5.16-3.84-8.49-7.53-2.85-3.16-5.32-5.9-4.69-6.78.75-1.05,5.62,1.09,7.91,2.3,1.75.92,3.06,1.87,4.09,2.61,3.03,2.2,3.01,2.77,5.27,4.42,2.95,2.15,5.51,3.02,8.1,3.89,4.02,1.36,5.06.95,5.58.65,1.31-.76,2.09-2.47,1.91-3.96-.25-2.01-2.23-3.22-4.01-4.32-2.01-1.23-2.72-.99-4.06-2.17Z"/>
                <path class="cls-33" d="M1271.36,1212.68c-.75-.27-4.74-1.72-7.7-3.29-3.14-1.66-5.21-3.51-6.16-4.37-1.66-1.5-3.07-3.11-4.19-4.59-2.23-1.85-4-3.65-5.4-5.25-3.07-3.52-4.36-6.07-4.31-5.31.75,10.44,10.11,20.17,27.27,25.81,2.53.83,3.13,2.22,3.2,3.23.08,1.15-.84,2.36-2.41,3.36,1.16.17,1.68.14,2.32-.02.77-.19,2.43-.6,3.27-2.07.87-1.53.44-3.49-.37-4.71-.92-1.4-2.16-1.58-5.53-2.8Z"/>
                <path class="cls-33" d="M1285.34,1189.59c-1.48-1.29-2.06-2.84-2.36-3.61-1.08-2.81-4.12-10.25-5.85-13.88-.35-.05-.58.01-.75.12-2.58,1.54,1.26,17.15,7.74,19.6.7.27,2.98.95,4.31,3.03.36.55,1.39,2.17.72,3.87-.22.56-.58,1-.97,1.33,2.2.52,2.92.22,3.32-.01,1.31-.76,2.09-2.47,1.91-3.96-.25-2.01-2.23-3.22-4.01-4.32-2.01-1.23-2.72-.99-4.06-2.17Z"/>
                <path class="cls-33" d="M1273.75,1200.47c-3.27-1.74-5.16-3.84-8.49-7.53-2.58-2.86-4.85-5.38-4.79-6.48-2.32-1.49-3.32-1.72-3.66-1.4-1.21,1.17,4.29,11.06,11.9,15.43,5.96,3.43,12.83,5.42,13.67,6.52.72.94.66,2.28.33,3.2-.34.93-1.05,1.68-1.98,2.16,2.74.49,3.47.1,3.82-.13,1.53-1.03,2.22-3.43,1.57-5.19-.47-1.27-1.54-1.9-6.13-3.92-5.26-2.32-4.92-1.96-6.23-2.66Z"/>
                <path class="cls-36" d="M1310.32,1045.87c-2.3,9-4.66,16.48-6.37,22-5.72,18.49-6.46,17.31-11.54,34.1-1.89,6.26-4.47,12.3-6.21,18.6-1.08,3.91-1.99,7.72-5.01,11.74-2.08,2.76-4.76,4.6-7.64,6.71-3.04,2.23-5.46,3.61-7.92,5-6.35,3.59-9.83,5.56-14.93,7.21-3.52,1.14-7.49,2.01-10.47,4.2-.21.15-1.5,1.12-3.31,2.34-1.71,1.16-2.59,1.75-3.56,2.24-2.56,1.29-3.01.76-4.19,1.68-.77.6-1.18,1.3-2.54,5.27-1.2,3.5-1.27,4.08-1.91,5.83-1.07,2.89-1.47,2.88-2.96,6.25-2.15,4.86-1.23,4.68-3.17,8.77-.02.03-1.52,3.22-2.58,6.71-.19.62-.52,1.78-.17,3.11.28,1.06.85,1.72,1.33,2.3,1.19,1.45,2.11,3.09,3.25,4.57.87,1.11.44.63,4.83,6.98,4.07,5.89,3.42,4.83,4.3,6.17,1.1,1.69,2.72,4.27,5.21,7.43,1.32,1.68,2,2.4,3.15,2.79,1.61.55,3.86.35,5.41-1.16,1.69-1.64,1.56-3.87,1.53-4.26-.17-2.21-1.69-3.74-2.41-4.5-4.81-5.05-7.59-11.07-9.9-16.08-.91-1.98-2.92-4.05-2.42-6.53.05-.25.42-1.18,1.16-3.05,1.27-3.21,1.41-3.28,1.54-4.11.3-1.97-.28-2.93.42-3.51.43-.36.97-.25,2.23-.13,1.34.13,2.69.07,4.03.21,3.83.4,5.28-1.4,10.89-1.64,2.02-.08,3.55.08,4.48.18,4.08.45,6.59,1.52,8.62,2.16,1.4.44,9.53,2.87,17.23-.23,3.39-1.36,5.61-3.36,7.64-5.19,3.04-2.73,4.8-5.31,7.32-9.02,3.34-4.9,5.02-7.35,5.7-9.28.18-.51.59-1.77,1.7-2.96,1.01-1.09,1.82-1.28,2.83-2.05.88-.67,1.71-1.62,2.95-4.38,2.03-4.5,2.02-6.89,3.6-11.47.57-1.64,1.24-3.11,2.59-6.05,0,0,2.88-6.28,6.25-12.08,6.12-10.53,20.94-29.06,23.61-32.42,15.06-18.94,22.59-28.41,22.17-34.12-.24-3.23-1.33-6.38-3.03-9.35l-49.05-13.64c-1.45,2.49-3.04,6.36-4.64,12.63Z"/>
                <path class="cls-33" d="M1230.01,1184.6c-.53.77.56,1.64.34,4.27-.2,2.47-1.43,4.83-1.93,5.79-.75,1.44-1.06,1.62-1.15,2.44-.18,1.68.94,2.96,1.86,4.27.95,1.35-.15.11,3.25,6.6,4.13,7.87,5.2,8.63,6.38,12.48.81,2.66,1.72,5.73.28,6.95-.33.28-.73.42-1.17.48,0,0,.02,0,.02,0,1.61.55,3.86.35,5.41-1.16,1.69-1.64,1.56-3.87,1.53-4.26-.17-2.21-1.69-3.74-2.41-4.5-4.81-5.05-7.59-11.07-9.9-16.08-.91-1.98-2.92-4.05-2.42-6.53.05-.25.42-1.18,1.16-3.05,1.27-3.21,1.41-3.28,1.54-4.11.3-1.97-.28-2.93.42-3.51.24-.2.52-.25.94-.24-2.71-.67-3.78-.38-4.16.17Z"/>
                <path class="cls-11" d="M1242.4,1179.19c-.9.26-2.19.92-3.09,1.39-1,.52-1.92,1.07-2.72,1.55-1.86,1.11-1.73,1.13-2.2,1.34-2.27.99-3.07.36-3.14.59-.04.14,3.79.78,4.16.82,1.34.12,2.69.07,4.03.21,3.83.4,5.28-1.4,10.89-1.64,1.48-.06,2.69,0,3.59.09-1.72-.83,1.24-2.11.14-2.68-3.51-1.79-9.65-2.25-11.67-1.67Z"/>
                <path class="cls-36" d="M1263.68,1160.61c-2.02,2.23-3.66,6.06-6.95,13.73-1.72,4.01-2.85,7.24-5.62,12.13-2.56,4.52-4.15,6.29-5.62,7.57-1.6,1.4-4.16,3.2-5.13,3.88-2.63,1.85-2.87,1.82-4.03,2.83-1.82,1.6-7.43,7.86-8.37,9.44-.66,1.11-2.82,4.73-1.14,7.75,1.45,2.62,4.98,3.37,7.41,2.95.52-.09,1.61-.34,4.5-2.41,2.76-1.99,27.02-20.91,28.26-21.97,1.51-1.3,2.51-2.32,2.88-2.67,3.56-3.5,8.86-5.76,10.07-6.32,7.14-3.33,19.54-18.32,19.19-25.63-.42-8.79-27-10.59-35.45-1.27Z"/>
                <path class="cls-5" d="M1232.98,1210.3c-1.08-.3-2.07.15-2.54.36-.47.21-1.13.6-2.43,2.14-1.63,1.92-2.44,2.89-2.77,4.45-.14.68-.38,1.79.15,3.03.61,1.44,1.85,2.08,2.16,2.22,1.31.62,2.52.4,3.53.21,0,0,3.4-.64,5.64-3.73.61-.84.81-1.45.9-1.93.05-.28.18-1.11-.12-2.08-.18-.56-.42-.91-2.38-2.9-1.45-1.47-1.7-1.66-2.13-1.78Z"/>
                <path class="cls-26" d="M1232.98,1210.3c-.06-.02-.12-.03-.18-.04-.19.8-.23,1.78.17,2.8.16.42.7,1.6,1.99,2.29.82.44,1.76.59,2.7.47-.03-.26-.08-.55-.17-.85-.18-.56-.42-.91-2.38-2.9-1.45-1.47-1.7-1.66-2.13-1.78Z"/>
                <path class="cls-26" d="M1226.87,1219.19c-.86-1.64-.7-3.33-.37-4.55-.66.89-1.06,1.63-1.26,2.61-.14.68-.38,1.79.15,3.03.61,1.44,1.85,2.08,2.16,2.22,1.31.62,2.52.4,3.53.21,0,0,.33-.06.85-.24-2.19-.26-4.1-1.47-5.05-3.28Z"/>
                <path class="cls-46" d="M1325.7,984.41c5.28-12.56,7.24-219.34,78.05-241.68,99.44-31.38,8.64,242.69.08,251.64-18.9,19.77-110.39,66.81-78.13-9.96Z"/>
                <path class="cls-46" d="M1351.29,947.13c-19.46,9.48-84.94,163.71-94.51,191.63,10.17,15.8,34.6,24.48,50.73,27.29,33.02-28.28,105.28-180.59,98.91-196.03-4.67-11.32-43.25-28.68-55.13-22.89Z"/>
                <path class="cls-22" d="M1385.26,979.63c-4.16,18.33-9.11,33.36-22.28,62.06-16.98,36.99-33.32,63.26-39.5,72.96-9.77,15.34-23.67,34.81-32.95,46.98,3.01,2.17,15.51,2.5,16.98,4.43,49.22-47.25,97.53-165.18,99.76-185.53,0,0,.01-.02.02-.03,6.51-9.4,60.84-208.88-10.07-232.95,6.6,15.28,17.95,100.2-11.95,232.08Z"/>
            </g>
            <g>
                <path class="cls-36" d="M1460.32,1753.17c1.13-6.39,5.81-31.61,6.02-41.99.11-5.37.89,12.68,3.34,9.75,2.48-2.95,7.31-2.55,10.06-2.43,23.2,1.02,36.28-12.37,43.69-5.2,2.46,2.38,1.07,49.47.35,52.35-3.62,14.41-5.43,21.61-9.01,23.92-15.43,9.97-57.42-19.51-54.44-36.41Z"/>
                <path class="cls-28" d="M1464.92,1744.37c-7.12-.41-9.44,8.43-23.62,20.66-8.36,7.21-13.66,11.79-22.14,14.02-4.76,1.25-12.52,1.57-28.05,2.21-7.51.31-10.86.29-14.02,2.95-4.81,4.05-6.84,12.33-3.69,16.97,2.58,3.8,8.02,4.26,10.33,4.43,30.58,2.18,45.87,3.26,52.4,2.95,8.78-.42,45.82-1.73,76.02,0,4.35.25,14.63.91,19.19-5.17,1.43-1.9,2.3-4.47,1.48-14.76-1.14-14.31-2.24-28.11-8.12-29.52-2.9-.7-3.83,2.37-11.07,5.17-2.34.9-9.61,3.71-16.97,2.21-2.62-.53-4.79-1.51-18.45-12.55-10.68-8.63-11.14-9.47-13.28-9.59Z"/>
                <path class="cls-41" d="M1532.81,1788.65c-1.14-14.31-2.24-28.11-8.12-29.52-2.9-.7-3.83,2.37-11.07,5.17-.89.34-2.49.96-4.54,1.51-13.98,15.05-27.37,21.48-35.24,24.46-15.68,5.94-34.14,6.39-71.08,7.28-12.29.3-22.79.24-30.73.09.21,1.31.66,2.52,1.36,3.55,2.58,3.8,8.02,4.26,10.33,4.43,30.58,2.18,45.87,3.26,52.4,2.95,8.78-.42,45.82-1.73,76.02,0,4.35.25,14.63.91,19.19-5.17,1.43-1.9,2.3-4.47,1.48-14.76Z"/>
                <path class="cls-1" d="M1528.09,1812.9h-146.21c-2.79,0-7.16-10.22-7.16-10.22h156.16c2.79,0,0,10.22-2.79,10.22Z"/>
                <path class="cls-36" d="M1615.33,1718.83c-2.53,5.58,1.34,8.06,1.76,22.21.61,20.49-7.19,26.06-2.82,32.43,4.72,6.88,14.08.8,49,3.88,7.45.66,11.85,1.36,14.1-1.41,4.46-5.5-6.94-15.64-8.46-34.55-1.32-16.39,6.26-21.15,2.11-27.85-8.31-13.42-48.63-10.26-55.7,5.29Z"/>
                <path class="cls-48" d="M1412.07,1110.31c-19.68,21.8-16.49,267.93-9.29,327.68,4.03,33.49,23.9,130.2,23.9,130.2,7.21,36.24,9.4,35.09,13.51,58.53,10.36,59.14,13.69,90.36,15.01,100.55,2.2,17.02,61.51,15.61,68.66,0,3.7-8.07,5.33-40.82-4.5-103.55-.7-4.47-10.41-67.27-12.01-120.06-1.34-44.45,3.61-79.16,13.51-148.57,13.67-95.89,21.91-210.81,5.58-229.79-23.51-27.32-90.25-41.69-114.36-14.99Z"/>
                <path class="cls-44" d="M1507.35,1503.66c-1.34-44.45,3.61-79.16,13.51-148.57,13.67-95.89,33.62-182.06,17.29-201.04-23.51-27.32-33.65-51.48-39.6-27.04-7.04,28.91,1.15,158.2-8.76,254.55-7.18,69.75-10.76,104.62-7.69,148.98,3.66,52.69,15.82,115.06,16.69,119.49,8.16,41.39,10.74,69.75,10.56,86.53,7.12-2.06,20.8-11.44,22.68-15.55,3.7-8.07-2.84-34.58-12.67-97.3-.7-4.47-10.41-67.26-12.01-120.06Z"/>
                <path class="cls-48" d="M1496.47,1142.87c-10.66,24.75,7.29,114.55,23.78,221.22,6.81,44.03,9.88,80.28,27.01,130.56,3.06,8.98,3.9,10.57,9,25.51,8.43,24.68,22.03,64.46,30.01,100.55,16.08,72.7,16.49,85.52,20.81,103.39,3.44,14.22,55.36,13.19,65.03,2.21,4.8-5.45,11.45-50.39,1.2-116.1-8.63-55.35-16.72-65.28-24.01-115.55-2.58-17.77-3.72-46.86-6-105.05-2.24-57.06-11.08-114.01-9-171.08.93-25.52,14.22-95.29,5.69-103.1-23.82-21.79-121.08-24.64-143.52,27.44Z"/>
                <path class="cls-44" d="M1673.33,1610.21c-8.63-55.35-16.72-65.28-24.01-115.55-2.58-17.77-3.72-46.86-6-105.05-2.24-57.06-11.08-114.01-9-171.08.93-25.52,16.03-114.61,7.49-122.42-18.2-16.64-31.47-11.04-34.24,14.34-10.57,96.64,9.19,238.86,11.43,295.92,2.28,58.19,3.42,87.28,6,105.05,7.3,50.27,15.38,60.2,24.01,115.55,7.99,51.19,5.71,89.77,2.05,106.9,9.54-1.22,17.77-3.81,21.07-7.56,4.8-5.45,11.45-50.39,1.2-116.1Z"/>
                <path class="cls-28" d="M1613.3,1755.02c-3.81,2.03-2.45,8.13-3.75,20.26-2.04,18.98-7.58,24.65-3.75,30.01,2.02,2.83,5.21,3.56,18.76,4.5,38.37,2.67,38.27-1.41,56.28,1.5,7.01,1.13,10.76-1.35,12.84-3.81,3.12-3.69-2.84-6.8-8.34-23.21-5.65-16.84-4.99-28.36-11.26-30.01-3.12-.82-4.51,1.72-9,.75-5.44-1.17-5.67-5.38-11.26-8.25-6.16-3.18-15.2-2.87-19.51,1.5-3.15,3.19-1.56,6.32-4.5,8.25-4.93,3.25-11.68-4.07-16.51-1.5Z"/>
                <path class="cls-41" d="M1685.33,1784.29c-5.65-16.84-4.99-28.36-11.26-30.01-.32-.08-.61-.12-.9-.15,1.11,4.48,1.79,10.49.32,17.23-.73,3.35-2.54,11.14-9.17,17.27-4.39,4.06-9.41,6.04-15.16,7.4-14.08,3.35-31.71,2.88-44.3,1.88-.64,3.06-.6,5.25.93,7.38,2.02,2.83,5.21,3.56,18.76,4.5,38.37,2.67,38.27-1.41,56.28,1.5,7.01,1.13,10.76-1.35,12.84-3.81,3.12-3.69-2.84-6.8-8.34-23.21Z"/>
                <path class="cls-1" d="M1692.13,1812.69h-85.82c-2.83,0-4.94-10.39-2.11-10.39h89.52c2.83,0,1.24,10.39-1.59,10.39Z"/>
                <path class="cls-32" d="M1645.67,1142.87c19.89-98.09-.97-384.39-9.96-390.58-28.45-19.58-140.32-28.48-146.47-28.48-10.75,0-88.69,18.14-92.02,21.44-3.15,3.12-50.43,4.72-13.33,374.2.64,6.4,13.34,26.17,19.68,27.3,27.14,4.84,54.47,5.79,90.14,6.97,68.14,2.27,108.55.37,151.97-10.85Z"/>
                <path class="cls-22" d="M1584.38,1152.96c19.7,0,47.3-6.47,61.29-10.09,19.89-98.09,5.97-208.25,6.24-220.84.38-17.8-11.92-29.6-21.39-38.38-1.98,15.23-29.37-63.58-27.65-35.55,8.04,130.7-16.05,290.76-18.48,304.86Z"/>
                <path class="cls-36" d="M1667.65,1162.92c1.46,2.41,2.81,11.4,5.45,29.28,2.19,14.87,2.85,20.23,2.04,27.92-.39,3.7-.99,9.07-3.41,15.66-2.39,6.51-7.04,12.51-16.34,24.52-1.96,2.53-4.23,5.36-8.17,7.49-3.46,1.87-5.59,1.79-9.53,2.72-.03,0-.06.01-.08.02-8.65,2.05-16.27,9.2-18.98,7.47-1.96-1.25-1.37-7.1,1.36-10.9,2.48-3.45,5.03-2.82,7.49-5.45,2.67-2.85,3.02-7.13.68-21.79-1.31-8.21-3.15-21.22-4.09-21.11-.83.1-.73,10.47-.68,16,.04,4.1.17,6.99-1.02,10.9-1.16,3.8-2.82,6.04-3.75,7.15-1.22,1.45-4.85,5.78-7.83,4.77-1.98-.67-2.94-3.45-3.06-5.45-.22-3.52,2.12-5.12,3.41-8.51,1.72-4.54.02-8.25-1.02-12.94-1.66-7.48-.73-13.43.68-22.47,1.55-9.96,5.02-12.2,11.92-26.56,11.46-23.85,8.8-31.98,16-34.73,9.06-3.46,22.75,5.76,28.94,16Z"/>
                <g>
                    <path class="cls-33" d="M1637.59,1268.74h0c-.43-.81-.25-1.89.41-2.44,4.27-3.57,7.03-7.71,8.02-12.03.27-1.18.47-3.4.58-6.61.16-4.36.1-8.72-.18-13-.06-.98.53-1.85,1.34-1.94h0c.83-.1,1.57.64,1.64,1.64.29,4.43.35,8.95.19,13.46-.19,5.24-.56,6.87-.69,7.41-1.18,5.14-4.34,9.95-9.18,14.01-.7.59-1.67.36-2.13-.51Z"/>
                    <path class="cls-33" d="M1659.46,1249.73h0c-.81-.11-1.4-.99-1.31-1.97.29-3.46.48-6.95.57-10.41.06-2.48.07-4.98.03-7.46-.02-.99.62-1.8,1.44-1.83h0c.83-.03,1.53.76,1.54,1.76.04,2.54.03,5.11-.03,7.65-.09,3.54-.28,7.12-.58,10.66-.08,1-.83,1.72-1.66,1.6Z"/>
                </g>
                <path class="cls-32" d="M1601.5,802.74c21.96-59.61,11.66-60.13,15.42-59.02,52.54,15.46,55.77,76.2,57.14,84.65,6.36,39.07,9.53,58.6,12.26,80.36,3.51,28.01,5.63,45.18,7.49,69.46,1.27,16.65,2.52,32.84,2.72,51.76.67,60.61-12,131.58-21.06,142.14-6.81,7.93-47.47,7.96-55.09-5.27-4.06-7.04,6.27-89.51,6.69-125.97.29-25.14.9-78.68-15.66-134.16-3.42-11.47-28.02-54.79-9.91-103.95Z"/>
                <g>
                    <g>
                        <path class="cls-36" d="M1454.03,653.89c-.21-.32-4.35-6.35-9.29-5.1-4.75,1.21-7.3,8.43-7.83,12.99-1.26,10.9,8.68,22.58,13.9,21.2,5.81-1.54,9.3-19.95,3.21-29.09Z"/>
                        <path class="cls-33" d="M1448.59,675.98c-1.54-.03-2.97-2.06-3.72-3.35-1.81-3.11-3.16-7.85-1.04-10.98,1.21-1.79,3.84-3.25,6.3-2.46,1.72.56,3.01,2.12,3.5,4.14.18.74-.33,1.53-1.05,1.63h0c-.54.08-1-.3-1.14-.86-.31-1.26-1.08-2.22-2.1-2.55-1.4-.45-3.03.41-3.75,1.46-.78,1.14-.79,3.13-.03,5.44.94,2.86,3.14,4.99,3.13,5.07,0,0-3.18-3.86,0,0,1.86,2.27.06,2.45-.11,2.44Z"/>
                        <path class="cls-33" d="M1450.32,686.66h0c-3.71-.07-4.86-3.86-5.29-5.28-.01-.04-.02-.07-.03-.1-3.24-1.19-7.21-7.57-8.06-15.12-.61-5.42.65-9.41,1.81-11.8.66-1.35,1.75-3.6,4.1-4.83,2.48-1.31,4.8-.66,5.67-.41,3.24.91,5.09,3.51,6.01,5.32.31.61.05,1.42-.56,1.75h0c-.53.28-1.15.11-1.42-.43-.75-1.46-2.22-3.55-4.75-4.27-.72-.2-2.4-.67-4.11.23-1.61.85-2.4,2.47-2.98,3.66-1.46,3-1.98,6.46-1.55,10.3.81,7.13,4.69,12.92,6.92,13.33.69.13.87.74,1.09,1.45.58,1.93,1.39,3.71,3.35,3.75h0c.98.02,1.41-.23,1.73-1.77.14-.64.69-1.1,1.27-1.05h0c.65.06,1.07.71.92,1.42-.38,1.79-1.29,3.91-4.13,3.85ZM1445.55,681.42h0s0,0,0,0Z"/>
                        <path class="cls-33" d="M1453.33,664.5c.12.36-1.04.81-1.99,2.15-1.83,2.6-.99,5.9-1.44,5.99-.34.07-1.01-1.71-.94-3.64.03-.88.1-2.68,1.32-3.81,1.16-1.07,2.91-1.12,3.05-.7Z"/>
                    </g>
                    <path class="cls-21" d="M1545.12,722.35c-4.92-11.65-20.43-15.86-28.65-18.1-4.12-1.12-17.39-4.28-33.68,0-7.58,1.99-44.29,13.74-34.66,41.73.88,2.54,5.45,17.26,20.01,25.64,11.56,6.65,22.62,5.45,29.47,4.71,4.59-.5,22.02-2.39,36.4-15.85,15.49-14.39,14.15-30.94,11.11-38.13Z"/>
                    <path class="cls-36" d="M1459.91,720.24c-1.55,2.5,3.61,7.21,1.36,14.29-1.03,3.25-2.52,3.5-3.4,6.12-2.28,6.78,4.05,15.86,9.52,20.41,10.81,8.98,25.6,6.43,31.29,5.44,20.55-3.55,40.74-19.53,40.14-32.66-.12-2.62.14-5.77-1.36-11.57-1.31-5.07.08-9.55.68-14.97,1.84-16.58,3.93-21.9,2.72-22.45-3.15-1.45-12.93,36.96-36.74,42.86-18.91,4.68-41.09-12.51-44.22-7.48Z"/>
                    <path class="cls-33" d="M1506.64,740.22c14.28-7.62,26.2-24.65,33.51-47.24.95-5.59,1.47-7.78.72-8.13-3.15-1.45-12.93,36.96-36.74,42.86-18.91,4.68-41.09-12.51-44.22-7.48-1.55,2.5,3.61,7.21,1.36,14.29-.71,2.24-1.1,2.7-1.9,3.85,3.67,2.66,9.35,7.15,15.82,8.41,14.02,2.74,25.45-3.36,31.45-6.56Z"/>
                    <path class="cls-36" d="M1449.92,699.72c1.38,8.82,2.17,11.64,3.5,14.7.93,2.14,6,13.84,16.8,19.6,16.72,8.92,36.61-2.01,40.6-4.2,15.66-8.6,22.58-22.27,31.5-39.9,2.68-5.3,10.1-20.75,14-42.7,3.6-20.29,5.4-30.43.7-40.6-11.12-24.06-45.67-26.91-50.4-27.3-9.12-.75-26.75-2.21-40.6,9.8-.69.59-7.95,13.92-15.4,29.4-6.18,12.85-4.14,59.27-.7,81.2Z"/>
                    <path class="cls-28" d="M1565.68,638.37c2.51-9.96,8.17-47.33-28.17-59.55-25.61-8.61-24.62-15.36-33.47-19.74-14.41-7.13-29.4-3.33-36.05-.72-32,12.55-22.94,40.44-22.94,40.44-18.31,41.16,1.73,58.17,1.96,56.38,2-15.44,2.11-32.54,6.74-41.09,3.65-6.75,7.35-8.39,8.41-8.82,4-1.59,7.5-.51,14.14,1.21,8.52,2.21,15.52,4.02,21.52,4.93,6.8,1.03,12.4.89,23.6.61,11.63-.29,15.99-1.19,19.23,2.08,2.86,2.88,3.12,7.26,3.34,11.06.41,6.92-1.54,12.19-2.17,14.03-5.57,16.37-.31,37.06,1.81,37.16.98.05,8.38,2.02,13.11-16.05,1.69-6.47,7.26-15.23,8.95-21.93Z"/>
                    <g>
                        <path class="cls-36" d="M1546.94,665.7c.3-.24,6.11-4.69,10.41-1.97,4.15,2.62,4.33,10.28,3.42,14.77-2.18,10.75-15.35,20.03-19.9,17.09-5.05-3.26-2.55-23.1,6.07-29.9Z"/>
                        <path class="cls-33" d="M1545.26,688.39c1.48.45,3.46-1.04,4.57-2.03,2.68-2.4,5.44-6.49,4.4-10.11-.6-2.07-2.64-4.28-5.23-4.29-1.81,0-3.52,1.08-4.61,2.85-.4.65-.16,1.56.49,1.87h0c.49.24,1.04.03,1.35-.46.69-1.1,1.72-1.78,2.79-1.77,1.47,0,2.76,1.33,3.11,2.55.38,1.33-.22,3.22-1.66,5.18-1.78,2.43-4.53,3.77-4.55,3.85,0,0,4.22-2.69,0,0-2.47,1.58-.82,2.31-.66,2.36Z"/>
                        <path class="cls-33" d="M1537.56,693.05c.08-.72.68-1.22,1.32-1.07h0c.57.13.95.74.88,1.4-.17,1.57.16,1.93,1.1,2.22h0c1.88.57,3.2-.87,4.35-2.53.42-.61.79-1.13,1.48-1.04,2.24.29,7.73-4,10.71-10.53,1.6-3.51,2.18-6.97,1.72-10.27-.18-1.31-.43-3.1-1.7-4.4-1.35-1.39-3.09-1.46-3.83-1.49-2.63-.11-4.67,1.42-5.83,2.58-.42.42-1.06.4-1.48-.03h0c-.48-.5-.48-1.36,0-1.84,1.44-1.43,4.01-3.34,7.37-3.2.9.04,3.3.14,5.26,2.15,1.84,1.9,2.19,4.38,2.4,5.86.37,2.64.33,6.82-1.93,11.78-3.16,6.92-8.91,11.75-12.35,11.88-.02.03-.04.06-.06.09-.85,1.22-3.11,4.47-6.66,3.38h0c-2.72-.83-2.93-3.12-2.74-4.95ZM1546.46,694.5s0,0,0,0c0,0,0,0,0,0Z"/>
                        <path class="cls-33" d="M1544.31,676c-.23.31.74,1.09,1.22,2.66.94,3.04-.89,5.91-.49,6.14.3.17,1.49-1.32,2.02-3.17.24-.85.74-2.58-.07-4.03-.77-1.38-2.42-1.96-2.68-1.61Z"/>
                    </g>
                    <path class="cls-28" d="M1536.76,691.21c-6.48-1.36-25.22,10.49-30.94,9.38-2.5-.48-.36,19.38-26.61,15.56-23.64-3.44-11.58-21.85-16.42-22.49-5.16-.67-9.1-2.95-13.26-9.85-1.71-2.84-1.67-5.43-3.06-5.61-.46-.06-.94.17-1.42.6.6,7.72,1.39,14.8,2.27,20.38,1.47,9.35,2.3,12.33,3.71,15.58.98,2.27,6.36,14.66,17.8,20.77,17.71,9.45,38.8-2.13,43.02-4.45,13.95-7.66,20.86-18.16,28.42-32.61.82-1.56.62-3.46-.49-4.83-1.02-1.26-1.95-2.2-3.02-2.43Z"/>
                </g>
            </g>
        </g>
        <path class="cls-28" d="M1460.32,698.27c1.32,1.55,19.11,1.39,21.76,1.55,2.95.17,20.6,7.66,23.61,6.54.2-.07,6.06-2.92,3.37-4.77-3.89-2.68-17.66-6.24-25.63-7.28-7.24-.95-19.21-2.58-23.51-1.24-3.07.96.16,4.92.41,5.21Z"/>
    </g>
</svg>