<svg xmlns="http://www.w3.org/2000/svg" xmlns:xlink="http://www.w3.org/1999/xlink" id="Capa_1" version="1.1" viewBox="0 0 841.92 1190.64">
    <defs>
        <style>
            .st0 {
            fill: #fff;
            }
        </style>
    </defs>
    <path class="st0" d="M752.59,608.05c-.47,13.71-.47,25.71-1.39,37.63-1.05,13.73-2.69,27.43-4.46,41.09-2.37,18.2-6.42,36.06-11.64,53.66-4.54,15.31-10.08,30.24-16.83,44.71-11.64,24.93-26.27,47.94-44.65,68.47-5.09,5.68-10.47,11.13-15.98,16.41-20.8,19.9-44.39,35.79-70.28,48.32-25.16,12.18-51.52,20.85-78.88,26.39-10.93,2.21-21.97,4.04-33.04,5.3-16.44,1.87-32.97,2.18-49.51,1.13-13.78-.88-27.46-2.41-41.06-4.82-22.06-3.9-43.57-9.76-64.44-17.88-9.66-3.76-19.09-8.09-28.63-12.15-2.18-.93-4.49-1.6-6.55-2.73-21.81-11.89-43.17-24.52-62.71-39.97-2.57-2.03-5.35-3.79-7.84-5.9-3.9-3.29-7.66-6.75-11.43-10.19-3.6-3.29-7.18-6.6-10.68-9.99-24.96-24.19-45.58-51.66-61.92-82.33-1.37-2.58-3.08-4.99-4.3-7.64-10.77-23.43-19.73-47.47-24.66-72.89-5.02-25.86-6.96-51.93-5.62-78.23.99-19.48,3.43-38.79,6.89-57.99,4.39-24.37,10.15-48.4,18.67-71.66,4.23-11.54,9.26-22.79,13.94-34.17,1.11-2.71,2.04-5.53,3.44-8.08,13.38-24.42,28.02-47.99,46.98-68.62,3.68-4,7.44-7.91,11.28-11.76,18.15-18.16,38.58-33.3,61.03-45.71,29.39-16.25,60.77-26.93,93.73-33.09,14.24-2.66,28.58-4.45,43.03-5.54,16.63-1.26,33.27-1.6,49.9-.95,39.14,1.52,77.51,7.52,114.54,20.8,10.19,3.66,20.14,7.86,29.93,12.53,22.88,10.94,43.83,24.74,62.68,41.66,5.65,5.07,10.78,10.71,16.12,16.12,20.23,20.54,35.49,44.48,47.88,70.33,11.83,24.68,20.18,50.56,25.63,77.34,2.66,13.04,4.77,26.21,6.7,39.38,1.22,8.33,1.82,16.76,2.35,25.17.79,12.51,1.27,25.04,1.8,35.84Z"/>
</svg>